<svg width="24" height="24" viewBox="0 0 24 24" fill="none" xmlns="http://www.w3.org/2000/svg">
<g clip-path="url(#clip0_177_13444)">
<path d="M22.5419 8.06948L22.5419 8.0695L22.5451 8.07806C22.5768 8.16066 22.5622 8.29816 22.4422 8.41061L20.4156 10.2547L20.1253 10.5188L20.1769 10.9079C20.2243 11.2662 20.2501 11.6317 20.2501 12C20.2501 12.3683 20.2243 12.7338 20.1769 13.0921L20.1253 13.4812L20.4156 13.7453L22.4403 15.5877C22.4409 15.5882 22.4416 15.5888 22.4422 15.5894C22.5622 15.7018 22.5768 15.8393 22.5451 15.9219L22.5451 15.9219L22.5419 15.9305C22.35 16.4496 22.1186 16.9523 21.8564 17.4295L21.6432 17.7969C21.3559 18.2752 21.0329 18.7296 20.6777 19.1643C20.6032 19.2498 20.4719 19.2936 20.3326 19.2495C20.3325 19.2495 20.3323 19.2494 20.3321 19.2494L17.7221 18.4153L17.3481 18.2957L17.0367 18.5351C16.4687 18.9717 15.7884 19.3465 15.1276 19.6393L14.78 19.7932L14.6987 20.1646L14.1132 22.8389C14.1132 22.8391 14.1131 22.8393 14.1131 22.8396C14.0907 22.9392 14.014 23.0467 13.8303 23.1025C13.2373 23.1992 12.6251 23.25 11.9579 23.25C11.3757 23.25 10.7652 23.1996 10.1698 23.1025C9.98607 23.0467 9.90942 22.9392 9.88704 22.8396C9.88699 22.8393 9.88694 22.8391 9.88688 22.8389L9.30146 20.1646L9.218 19.7834L8.85789 19.633C8.17726 19.3486 7.53998 18.9783 6.96338 18.5351L6.65197 18.2957L6.27786 18.4153L3.67078 19.2491C3.67055 19.2491 3.67032 19.2492 3.6701 19.2493C3.5247 19.2951 3.39378 19.2467 3.32579 19.1667C2.96953 18.7315 2.646 18.2766 2.35817 17.7974L2.14498 17.4285C1.8807 16.9533 1.64991 16.4505 1.45575 15.929L1.45471 15.9262C1.42127 15.8374 1.43903 15.6996 1.55692 15.5907C1.55723 15.5905 1.55753 15.5902 1.55783 15.5899L3.58335 13.7451L3.87338 13.481L3.82184 13.0921C3.77459 12.7356 3.75006 12.3701 3.75006 12C3.75006 11.6299 3.77459 11.2644 3.82184 10.9079L3.87338 10.519L3.58335 10.2549L1.55783 8.4101C1.55752 8.40982 1.55722 8.40954 1.55692 8.40927C1.43937 8.30071 1.42023 8.1664 1.45571 8.07112L1.45574 8.07103C1.64979 7.54978 1.88107 7.04683 2.14527 6.57102L2.35776 6.20246C2.64664 5.72239 2.9705 5.26725 3.32646 4.83481C3.39342 4.75441 3.52298 4.70568 3.66926 4.75232C3.66927 4.75233 3.66929 4.75233 3.66931 4.75234L6.27832 5.58482L6.65307 5.70439L6.96449 5.46409C7.5405 5.01961 8.17658 4.65004 8.85527 4.36954L9.21761 4.21979L9.30146 3.83679L9.88719 1.16117C9.8872 1.1611 9.88722 1.16102 9.88724 1.16095C9.92111 1.00756 10.0284 0.921414 10.1309 0.90437L10.1316 0.904248C10.7376 0.802857 11.3618 0.75 12.0001 0.75C12.6383 0.75 13.2625 0.802857 13.8685 0.904249L13.8692 0.90437C13.9717 0.921415 14.079 1.00756 14.1129 1.16095C14.1129 1.16102 14.1129 1.1611 14.1129 1.16117L14.6987 3.83679L14.7804 4.20999L15.1303 4.36333C15.789 4.65203 16.4682 5.02623 17.0356 5.46409L17.347 5.70433L17.7216 5.58487L20.3326 4.75237L20.3336 4.75204C20.4736 4.70719 20.6035 4.75125 20.677 4.83716C21.0321 5.26934 21.3554 5.72393 21.6432 6.20311L21.8564 6.57054C22.1186 7.04774 22.35 7.55043 22.5419 8.06948ZM12.0001 16.5C14.4916 16.5 16.5001 14.4806 16.5001 11.9578C16.5001 9.5194 14.4916 7.45781 12.0001 7.45781C9.5085 7.45781 7.50006 9.5194 7.50006 11.9578C7.50006 14.4806 9.5085 16.5 12.0001 16.5Z" stroke="#696969" stroke-width="1.5"/>
</g>
<defs>
<clipPath id="clip0_177_13444">
<rect width="24" height="24" fill="white"/>
</clipPath>
</defs>
</svg>
