<svg width="24" height="24" viewBox="0 0 24 24" fill="none" xmlns="http://www.w3.org/2000/svg">
<path d="M9.55556 15.8055L12.3889 16.7499C12.3889 16.7499 19.4722 15.3333 20.4167 15.3333C21.3611 15.3333 21.3611 16.2777 20.4167 17.2221C19.4722 18.1666 16.1667 20.9999 13.3333 20.9999C10.5 20.9999 8.61111 19.5833 6.72222 19.5833H2" stroke="#696969" stroke-width="1.5" stroke-linecap="round" stroke-linejoin="round"/>
<path d="M2 13.9167C2.94444 12.9722 4.83333 11.5556 6.72222 11.5556C8.61111 11.5556 13.0972 13.4444 13.8056 14.3889C14.5139 15.3333 12.3889 16.75 12.3889 16.75M7.66667 8.72222V4.94444C7.66667 4.69396 7.76617 4.45374 7.94329 4.27662C8.12041 4.0995 8.36063 4 8.61111 4H19.9444C20.1949 4 20.4351 4.0995 20.6123 4.27662C20.7894 4.45374 20.8889 4.69396 20.8889 4.94444V12.5" stroke="#696969" stroke-width="1.5" stroke-linecap="round" stroke-linejoin="round"/>
<path d="M11.9167 4H16.6389V8.25H11.9167V4Z" stroke="#696969" stroke-width="1.5" stroke-linecap="round" stroke-linejoin="round"/>
</svg>
