<svg width="236" height="128" viewBox="0 0 236 128" fill="none" xmlns="http://www.w3.org/2000/svg">
<path d="M152.15 27.1522C150.763 34.1176 149.03 40.7987 146.964 47.1523C144.899 53.5059 142.503 59.5311 139.79 65.1846C139.623 65.534 139.373 65.8295 139.068 66.0505C138.764 66.2715 138.406 66.4193 138.023 66.4731C134.701 66.932 131.367 67.2768 128.028 67.5076C124.69 67.7377 121.345 67.8524 117.999 67.8524C111.309 67.8524 104.62 67.3915 97.9765 66.4731C97.5928 66.4193 97.235 66.2715 96.9317 66.0505C96.6275 65.8295 96.3778 65.534 96.2109 65.1846C93.4956 59.5311 91.1001 53.5059 89.0355 47.1523C86.9692 40.7987 85.2365 34.1176 83.8486 27.1522C83.8192 27.0019 83.8037 26.8497 83.8037 26.6985C83.8037 26.0797 84.0543 25.4765 84.5097 25.0384C89.236 20.4823 94.3227 16.2261 99.7343 12.2941C105.145 8.36197 110.88 4.75568 116.902 1.50197C117.243 1.31617 117.622 1.2237 117.999 1.2237C118.378 1.2237 118.754 1.31617 119.097 1.50197C125.12 4.75568 130.854 8.36197 136.266 12.2941C141.676 16.2261 146.763 20.4823 151.489 25.0384C151.945 25.4783 152.196 26.0806 152.196 26.702C152.196 26.8523 152.181 27.0027 152.15 27.1522ZM152.34 24.1569C147.602 19.5887 142.436 15.2643 136.986 11.3037C131.538 7.34652 125.716 3.6858 119.683 0.426914C119.168 0.146919 118.586 0 117.999 0C117.413 0 116.832 0.146912 116.319 0.425183C110.284 3.6858 104.461 7.34652 99.0144 11.3037C93.5613 15.266 88.3969 19.5905 83.6637 24.1552C82.974 24.8163 82.5791 25.7445 82.5791 26.7002C82.5791 26.9275 82.6016 27.1583 82.6474 27.3924C84.0379 34.3674 85.7956 41.1436 87.8714 47.5317C89.9481 53.9234 92.3834 60.041 95.1065 65.7141C95.358 66.2391 95.74 66.6967 96.2092 67.0403C96.6793 67.3831 97.2324 67.6067 97.8089 67.6871C104.482 68.6101 111.275 69.078 117.999 69.078C124.723 69.078 131.517 68.6101 138.194 67.6865C138.771 67.6061 139.323 67.3825 139.789 67.0409C140.257 66.6993 140.64 66.2424 140.893 65.7154C143.623 60.0272 146.058 53.9086 148.131 47.5317C150.208 41.1384 151.965 34.3631 153.353 27.3873C153.397 27.1583 153.421 26.9275 153.421 26.7002C153.421 25.7461 153.027 24.818 152.34 24.1569Z" fill="#C80000"/>
<path d="M131.757 39.4131C131.757 40.6886 130.723 41.7231 129.447 41.7231H122.586V48.5839C122.586 49.8595 121.55 50.8939 120.276 50.8939H115.724C114.448 50.8939 113.414 49.8595 113.414 48.5839V41.7231H106.552C105.277 41.7231 104.243 40.6886 104.243 39.4131V34.8613C104.243 33.5858 105.277 32.5522 106.552 32.5522H113.414V25.6905C113.414 24.4149 114.448 23.3805 115.724 23.3805H120.276C121.55 23.3805 122.586 24.4149 122.586 25.6905V32.5522H129.447C130.723 32.5522 131.757 33.5858 131.757 34.8613V39.4131ZM119.123 6.79131C118.426 6.39899 117.573 6.39899 116.875 6.79131C106.862 12.4198 97.7054 19.0646 89.5958 26.5875C88.9977 27.1415 88.7281 27.9668 88.8975 28.7644C91.3864 40.4069 94.8769 51.1878 99.2964 60.878C99.6309 61.6117 100.317 62.125 101.116 62.2219C112.331 63.57 123.667 63.57 134.883 62.2219C135.683 62.125 136.369 61.6117 136.703 60.878C141.124 51.1878 144.613 40.4069 147.1 28.7644C147.272 27.9668 147.002 27.1415 146.404 26.5875C138.294 19.0646 129.136 12.4198 119.123 6.79131Z" fill="#C80000"/>
<g clip-path="url(#clip0_300_20570)">
<path d="M9.1331 102.017L13.4588 91.0358C13.7084 90.4593 14.1355 90.1707 14.737 90.1707C15.3391 90.1707 15.752 90.4593 15.9775 91.0358L20.1147 102.017H9.1331ZM18.084 86.3536C17.2064 85.8644 16.1033 85.6199 14.7739 85.6199C13.4206 85.6199 12.298 85.8644 11.4087 86.3536C10.5188 86.8418 9.86032 87.6888 9.43384 88.8917L0.520508 111.457H5.40949L7.47838 106.229H21.6942L23.6873 111.457H28.6138L20.0395 88.8917C19.6137 87.6888 18.961 86.8418 18.084 86.3536Z" fill="#C80000"/>
<path d="M52.1186 86.0713H34.4812C33.076 86.0713 32.374 86.7609 32.374 88.1402V111.457H36.8125V90.9609C36.8125 90.6602 36.9752 90.5089 37.3006 90.5089H49.3354C49.6362 90.5089 49.7865 90.6602 49.7865 90.9609V111.457H54.2613V88.1402C54.2613 86.7609 53.5477 86.0713 52.1186 86.0713Z" fill="#C80000"/>
<path d="M58.3994 90.509H65.8078V111.456H70.2839V90.509H77.6922V86.0713H58.3994V90.509Z" fill="#C80000"/>
<path d="M86.4172 106.173C85.7898 105.609 85.4767 104.825 85.4767 103.822V100.738H89.3507H101.949V96.7148H89.4635H85.5941L85.5902 93.7056C85.5902 92.7282 85.8909 91.9513 86.4924 91.374C87.0939 90.7976 88.0719 90.509 89.4253 90.509H102.137V86.0713H89.4253C87.9209 86.0713 86.6363 86.2407 85.5707 86.5794C84.5045 86.9174 83.6276 87.3944 82.9386 88.008C82.249 88.6224 81.7408 89.3561 81.4148 90.2082C81.0894 91.0612 80.9261 91.9885 80.9261 92.9909C80.9261 95.8246 80.8516 103.083 80.8516 104.537C80.8516 105.515 81.0071 106.43 81.3215 107.282C81.6345 108.135 82.1355 108.868 82.8252 109.482C83.5148 110.097 84.3924 110.58 85.4586 110.93C86.5235 111.282 87.8081 111.456 89.3131 111.456H102.175V107.019H89.3131C88.0091 107.019 87.0433 106.737 86.4172 106.173Z" fill="#C80000"/>
<path d="M125.53 101.585C125.178 101.045 124.808 100.582 124.42 100.193C124.031 99.8043 123.611 99.4785 123.16 99.2149C122.708 98.9522 122.183 98.7456 121.581 98.5953C122.633 98.1433 123.486 97.5418 124.138 96.79C124.79 96.0372 125.403 95.097 125.98 93.9692L129.967 86.0713H125.19L121.318 93.6685C120.966 94.3702 120.634 94.9276 120.321 95.3416C120.006 95.7555 119.625 96.0753 119.173 96.3008C118.722 96.5264 118.152 96.6707 117.462 96.7329C116.773 96.796 115.889 96.8271 114.811 96.8271H112.367V86.0713H107.929V111.456H112.367V100.851H114.811C116.014 100.851 116.992 100.883 117.744 100.945C118.496 101.008 119.124 101.152 119.625 101.378C120.126 101.604 120.54 101.917 120.866 102.318C121.191 102.719 121.53 103.258 121.881 103.935L125.755 111.456H130.719L126.62 103.484C126.243 102.756 125.88 102.125 125.53 101.585Z" fill="#C80000"/>
<path d="M141.55 102.017L145.875 91.0358C146.125 90.4593 146.552 90.1707 147.153 90.1707C147.756 90.1707 148.169 90.4593 148.395 91.0358L152.532 102.017H141.55ZM150.5 86.3536C149.623 85.8644 148.52 85.6199 147.192 85.6199C145.838 85.6199 144.715 85.8644 143.826 86.3536C142.935 86.8418 142.277 87.6888 141.851 88.8917L132.938 111.457H137.826L139.895 106.229H154.111L156.105 111.457H161.031L152.456 88.8917C152.03 87.6888 151.379 86.8418 150.5 86.3536Z" fill="#C80000"/>
<path d="M180.211 87.4443C179.759 86.9551 179.151 86.6043 178.387 86.3908C177.621 86.1782 176.663 86.071 175.51 86.071H172.84V90.5087H175.134C175.81 90.5087 176.286 90.6599 176.562 90.9607C176.838 91.2614 176.977 91.7497 176.977 92.4272V111.457H181.414V92.1256C181.414 91.0237 181.326 90.0896 181.151 89.3247C180.975 88.5599 180.662 87.9325 180.211 87.4443Z" fill="#C80000"/>
<path d="M203.415 102.243H192.32C191.719 102.243 191.286 102.137 191.022 101.923C190.758 101.71 190.627 101.403 190.627 101.002C190.627 100.576 190.778 100.188 191.079 99.836L197.999 91.6002C198.349 91.1733 198.676 90.8846 198.976 90.7351C199.277 90.5839 199.716 90.5087 200.293 90.5087H202.286C203.038 90.5087 203.415 90.9227 203.415 91.7497V102.243ZM203.301 86.071H200.48C199.728 86.071 199.071 86.1342 198.506 86.2595C197.942 86.3847 197.434 86.5662 196.983 86.8047C196.532 87.0433 196.119 87.3371 195.742 87.6888C195.367 88.0397 194.976 88.4536 194.576 88.9298L187.243 97.692C186.766 98.2692 186.384 98.8577 186.096 99.4601C185.808 100.062 185.663 100.838 185.663 101.792C185.663 103.22 186.102 104.312 186.979 105.064C187.856 105.815 189.374 106.191 191.53 106.191H203.415V111.457H207.89V90.6971C207.89 89.1925 207.537 88.0458 206.837 87.2559C206.134 86.466 204.956 86.071 203.301 86.071Z" fill="#C80000"/>
<path d="M220.789 97.4666C219.636 97.4666 218.752 97.203 218.138 96.6767C217.523 96.1504 217.217 95.3234 217.217 94.1947C217.217 93.092 217.523 92.2019 218.138 91.5244C218.752 90.8477 219.698 90.509 220.978 90.509H224.513C226.643 90.509 228.241 91.0612 229.307 92.1639C230.373 93.2675 230.968 95.0356 231.094 97.4666H220.789ZM234.836 92.7662C234.347 91.2116 233.663 89.9394 232.787 88.9482C231.908 87.9587 230.856 87.231 229.627 86.7669C228.399 86.3038 227.045 86.0713 225.565 86.0713H221.316C219.762 86.0713 218.451 86.2779 217.386 86.6918C216.32 87.1057 215.454 87.6761 214.791 88.4029C214.126 89.1305 213.643 89.9895 213.343 90.9791C213.042 91.9703 212.892 93.029 212.892 94.1567C212.892 96.5143 213.487 98.2504 214.679 99.3661C215.869 100.482 217.755 101.039 220.338 101.039H230.981C230.68 103.171 229.965 104.701 228.837 105.627C227.71 106.555 226.13 107.019 224.099 107.019H215.75V111.456H224.099C227.785 111.456 230.618 110.385 232.599 108.241C234.579 106.097 235.57 102.807 235.57 98.3688C235.57 96.1884 235.324 94.3201 234.836 92.7662Z" fill="#C80000"/>
<path d="M3.57766 119.965C4.80784 119.965 5.32312 120.54 5.44303 121.336C5.46377 121.488 5.43266 121.558 5.29201 121.599L5.05025 121.67C4.89858 121.73 4.84867 121.69 4.81821 121.548C4.7171 120.922 4.35349 120.57 3.48692 120.57C2.48747 120.57 1.89312 121.095 1.7408 121.942L1.46988 123.475C1.31756 124.323 1.74081 124.847 2.73053 124.847C3.56729 124.847 4.09164 124.494 4.42414 123.808C4.49543 123.667 4.55571 123.647 4.69765 123.687L4.95951 123.778C5.08007 123.829 5.11052 123.889 5.03015 124.03C4.55571 124.958 3.82979 125.442 2.62877 125.442C1.186 125.442 0.581267 124.645 0.803582 123.404L1.06544 121.912C1.28711 120.68 2.09469 119.965 3.57766 119.965Z" fill="#C80000"/>
<path d="M12.7304 120.55C11.7523 120.55 11.0763 121.104 10.9045 122.033L10.8242 122.426C11.3686 122.548 11.9442 122.598 12.427 122.598C13.3247 122.598 13.8912 122.295 14.0422 121.68C14.2237 120.943 13.7188 120.55 12.7304 120.55ZM12.8315 119.965C14.1926 119.965 14.9496 120.651 14.6975 121.76C14.4959 122.698 13.6689 123.132 12.3266 123.132C11.8327 123.132 11.2273 123.071 10.7321 122.971L10.6427 123.475C10.4904 124.352 10.9136 124.857 11.9137 124.857C12.7407 124.857 13.2547 124.545 13.628 124.06C13.7389 123.939 13.8095 123.909 13.9307 123.989L14.1226 124.111C14.2334 124.181 14.2334 124.273 14.1323 124.403C13.6689 125.018 12.9721 125.442 11.8126 125.442C10.2992 125.442 9.7748 124.554 9.99711 123.334L10.2389 122.022C10.4703 120.711 11.4088 119.965 12.8315 119.965Z" fill="#C80000"/>
<path d="M25.1923 119.965C26.4731 119.965 26.9171 120.691 26.6947 121.932L26.1412 125.12C26.1101 125.261 26.0596 125.301 25.9189 125.301H25.6058C25.4646 125.301 25.4341 125.261 25.4548 125.12L26.0297 121.912C26.1814 121.014 25.8677 120.591 25.0005 120.591C24.3245 120.591 23.7904 120.833 23.5681 120.933C23.6588 121.185 23.6685 121.498 23.5985 121.882L23.0334 125.12C23.0042 125.261 22.953 125.301 22.811 125.301H22.4993C22.3586 125.301 22.3282 125.261 22.3586 125.12L22.9225 121.912C23.0846 120.984 22.7216 120.591 21.8634 120.591C21.4201 120.591 21.0967 120.661 20.7746 120.792C20.6125 120.863 20.5827 120.953 20.5522 121.064L19.8451 125.12C19.8153 125.261 19.766 125.301 19.6338 125.301H19.311C19.1801 125.301 19.1393 125.261 19.1697 125.12L19.9171 120.863C19.9773 120.55 20.0778 120.419 20.4012 120.287C20.7836 120.126 21.3086 119.965 22.0553 119.965C22.6399 119.965 23.0534 120.116 23.2959 120.409C23.5279 120.307 24.2136 119.965 25.1923 119.965Z" fill="#C80000"/>
<path d="M33.5603 124.837C34.5397 124.837 35.0841 124.413 35.2455 123.525C35.3862 122.698 34.9733 122.255 34.0653 122.255C33.5104 122.255 33.0263 122.376 32.5719 122.537L32.2401 124.373C32.2193 124.534 32.2297 124.565 32.3904 124.645C32.6633 124.747 33.0366 124.837 33.5603 124.837ZM34.2065 121.67C35.4976 121.67 36.1238 122.376 35.9118 123.576C35.6895 124.847 34.8923 125.442 33.5415 125.442C32.7229 125.442 32.1889 125.311 31.8259 125.16C31.5232 125.029 31.4623 124.918 31.5232 124.595L32.2893 120.297C32.3191 120.156 32.3703 120.116 32.511 120.116H32.804C32.9453 120.116 32.9854 120.156 32.9556 120.297L32.6737 121.942C33.1565 121.78 33.6511 121.67 34.2065 121.67Z" fill="#C80000"/>
<path d="M49.9702 119.965C51.2004 119.965 51.7157 120.54 51.8356 121.336C51.8563 121.488 51.8252 121.558 51.6846 121.599L51.4428 121.67C51.2912 121.73 51.2413 121.69 51.2108 121.548C51.109 120.922 50.7461 120.57 49.8795 120.57C48.8801 120.57 48.2857 121.095 48.1334 121.942L47.8625 123.475C47.7101 124.323 48.1334 124.847 49.1231 124.847C49.9599 124.847 50.4842 124.494 50.8167 123.808C50.888 123.667 50.9483 123.647 51.0902 123.687L51.3521 123.778C51.4726 123.829 51.5031 123.889 51.4227 124.03C50.9483 124.958 50.2224 125.442 49.0214 125.442C47.5786 125.442 46.9738 124.645 47.1962 123.404L47.458 121.912C47.6797 120.68 48.4873 119.965 49.9702 119.965Z" fill="#C80000"/>
<path d="M59.1232 120.58C58.1847 120.58 57.5086 121.044 57.368 121.821L57.055 123.596C56.9137 124.362 57.4386 124.827 58.3668 124.827C59.3248 124.827 59.9911 124.362 60.1317 123.596L60.4448 121.821C60.5854 121.044 60.0721 120.58 59.1232 120.58ZM59.2139 119.965C60.6062 119.965 61.3224 120.701 61.1214 121.851L60.8077 123.626C60.6062 124.776 59.678 125.442 58.2858 125.442C56.9136 125.442 56.178 124.726 56.3796 123.576L56.692 121.8C56.8936 120.651 57.8425 119.965 59.2139 119.965Z" fill="#C80000"/>
<path d="M67.2266 120.297L66.6718 123.455C66.5215 124.363 66.874 124.827 67.8424 124.827C68.5476 124.827 68.9514 124.666 69.385 124.574L70.142 120.297C70.1621 120.157 70.2224 120.116 70.354 120.116H70.6657C70.7979 120.116 70.8485 120.157 70.818 120.297L70.0714 124.545C70.6365 124.484 70.8984 124.757 70.7772 125.432L70.5957 126.521C70.5659 126.663 70.5251 126.703 70.3948 126.703H70.1018C69.9605 126.703 69.91 126.663 69.9411 126.521L70.1226 125.513C70.1621 125.261 70.0714 125.059 69.7084 125.12C69.1633 125.22 68.6091 125.442 67.6602 125.442C66.2784 125.442 65.7839 124.666 66.0062 123.425L66.5513 120.297C66.5811 120.157 66.6316 120.116 66.7729 120.116H67.0853C67.2163 120.116 67.2565 120.157 67.2266 120.297Z" fill="#C80000"/>
<path d="M80.6488 120.297L79.9021 124.554C79.8405 124.867 79.7511 124.978 79.4173 125.109C79.0044 125.271 78.3984 125.442 77.4806 125.442C76.0988 125.442 75.6146 124.666 75.8369 123.425L76.382 120.297C76.4118 120.156 76.4617 120.116 76.6024 120.116H76.9161C77.047 120.116 77.0872 120.156 77.0574 120.297L76.5025 123.446C76.3509 124.352 76.6944 124.826 77.6731 124.826C78.248 124.826 78.7017 124.726 79.0342 124.604C79.195 124.534 79.2462 124.454 79.2663 124.323L79.9727 120.297C79.9928 120.156 80.0531 120.116 80.1847 120.116H80.4964C80.6287 120.116 80.6792 120.156 80.6488 120.297Z" fill="#C80000"/>
<path d="M87.9766 120.59C86.9273 120.59 86.3822 120.973 86.2007 121.972L85.9492 123.374C85.7872 124.262 86.1411 124.826 87.0886 124.826C87.775 124.826 88.3396 124.685 88.6429 124.584L89.2677 121.054C89.2885 120.893 89.2677 120.853 89.107 120.782C88.8438 120.68 88.4809 120.59 87.9766 120.59ZM88.0369 119.964C88.7933 119.964 89.3688 120.116 89.691 120.267C89.9943 120.409 90.0442 120.489 89.9839 120.823L89.2677 124.908C89.2373 125.048 89.1673 125.099 89.015 125.15C88.5113 125.29 87.8457 125.442 86.9376 125.442C85.5551 125.442 85.0612 124.564 85.2836 123.323L85.535 121.881C85.7664 120.539 86.5643 119.964 88.0369 119.964Z" fill="#C80000"/>
<path d="M99.5 120.297L98.6626 125.12C98.6321 125.261 98.5725 125.301 98.4403 125.301H98.1285C97.9866 125.301 97.9561 125.261 97.9762 125.12L98.7436 120.751H96.6359L96.2411 122.416C95.6358 124.978 95.0518 125.1 94.2643 125.432C94.1528 125.472 94.0925 125.442 94.0621 125.342L93.9623 125.029C93.9318 124.928 93.9519 124.888 94.053 124.837C94.4769 124.636 95.0518 124.636 95.5858 122.356L96.07 120.297C96.1102 120.157 96.1614 120.116 96.2917 120.116H99.3587C99.4897 120.116 99.5298 120.157 99.5 120.297Z" fill="#C80000"/>
<path d="M106.121 124.837C107.1 124.837 107.644 124.413 107.806 123.525C107.947 122.698 107.533 122.255 106.625 122.255C106.071 122.255 105.586 122.376 105.132 122.537L104.8 124.373C104.779 124.534 104.79 124.565 104.951 124.645C105.223 124.747 105.597 124.837 106.121 124.837ZM106.767 121.67C108.058 121.67 108.684 122.376 108.472 123.576C108.25 124.847 107.452 125.442 106.102 125.442C105.283 125.442 104.749 125.311 104.386 125.16C104.084 125.029 104.022 124.918 104.084 124.595L104.849 120.297C104.88 120.156 104.93 120.116 105.072 120.116H105.365C105.505 120.116 105.546 120.156 105.516 120.297L105.234 121.942C105.717 121.78 106.211 121.67 106.767 121.67Z" fill="#C80000"/>
<path d="M118.311 120.297L117.474 125.119C117.444 125.26 117.394 125.301 117.252 125.301H116.94C116.798 125.301 116.769 125.26 116.788 125.119L117.172 122.95H114.246L113.873 125.119C113.842 125.26 113.793 125.301 113.651 125.301H113.339C113.207 125.301 113.166 125.26 113.186 125.119L114.034 120.297C114.065 120.156 114.115 120.116 114.257 120.116H114.569C114.7 120.116 114.74 120.156 114.71 120.297L114.358 122.326H117.283L117.636 120.297C117.666 120.156 117.716 120.116 117.858 120.116H118.17C118.301 120.116 118.341 120.156 118.311 120.297Z" fill="#C80000"/>
<path d="M129.341 120.297L128.494 125.119C128.463 125.26 128.413 125.301 128.281 125.301H127.959C127.828 125.301 127.787 125.26 127.817 125.119L128.665 120.297C128.685 120.156 128.747 120.116 128.877 120.116H129.19C129.331 120.116 129.372 120.156 129.341 120.297ZM124.932 124.837C125.911 124.837 126.456 124.413 126.618 123.525C126.759 122.698 126.345 122.255 125.437 122.255C124.883 122.255 124.398 122.376 123.944 122.537L123.611 124.373C123.591 124.534 123.601 124.564 123.762 124.645C124.035 124.746 124.408 124.837 124.932 124.837ZM125.579 121.67C126.87 121.67 127.495 122.376 127.283 123.576C127.062 124.847 126.264 125.442 124.913 125.442C124.096 125.442 123.562 125.311 123.199 125.16C122.895 125.029 122.834 124.918 122.895 124.595L123.661 120.297C123.692 120.156 123.742 120.116 123.884 120.116H124.176C124.317 120.116 124.357 120.156 124.327 120.297L124.045 121.942C124.529 121.78 125.024 121.67 125.579 121.67Z" fill="#C80000"/>
<path d="M138.636 120.318L136.488 122.638L137.9 125.099C137.97 125.23 137.92 125.301 137.728 125.301H137.476C137.285 125.301 137.254 125.281 137.184 125.15L136.024 123.122L134.178 125.15C134.066 125.281 134.007 125.301 133.825 125.301H133.492C133.29 125.301 133.28 125.23 133.4 125.099L135.661 122.638L134.319 120.318C134.268 120.197 134.298 120.116 134.501 120.116H134.742C134.934 120.116 134.975 120.136 135.035 120.267L136.135 122.144L137.87 120.267C137.991 120.136 138.021 120.116 138.213 120.116H138.555C138.738 120.116 138.758 120.187 138.636 120.318Z" fill="#C80000"/>
<path d="M152.069 120.59C151.02 120.59 150.474 120.973 150.293 121.972L150.041 123.374C149.88 124.262 150.233 124.826 151.181 124.826C151.868 124.826 152.432 124.685 152.735 124.584L153.36 121.054C153.381 120.893 153.36 120.853 153.199 120.782C152.937 120.68 152.574 120.59 152.069 120.59ZM152.13 119.964C152.885 119.964 153.461 120.116 153.784 120.267C154.087 120.409 154.137 120.489 154.077 120.823L153.36 124.908C153.33 125.048 153.26 125.099 153.108 125.15C152.604 125.29 151.938 125.442 151.03 125.442C149.647 125.442 149.154 124.564 149.376 123.323L149.628 121.881C149.859 120.539 150.657 119.964 152.13 119.964Z" fill="#C80000"/>
<path d="M161.778 119.965C163.159 119.965 163.654 120.751 163.432 121.992L162.887 125.12C162.857 125.261 162.796 125.301 162.665 125.301H162.352C162.212 125.301 162.181 125.261 162.201 125.12L162.756 121.963C162.917 121.055 162.564 120.591 161.586 120.591C161.01 120.591 160.536 120.701 160.214 120.812C160.063 120.873 160.032 120.953 160.002 121.064L159.296 125.12C159.265 125.261 159.215 125.301 159.084 125.301H158.762C158.629 125.301 158.59 125.261 158.62 125.12L159.366 120.863C159.427 120.55 159.518 120.439 159.851 120.307C160.265 120.146 160.869 119.965 161.778 119.965Z" fill="#C80000"/>
<path d="M174.2 119.965C175.481 119.965 175.925 120.691 175.703 121.932L175.149 125.12C175.118 125.261 175.067 125.301 174.927 125.301H174.614C174.472 125.301 174.442 125.261 174.463 125.12L175.038 121.912C175.189 121.014 174.876 120.591 174.008 120.591C173.332 120.591 172.798 120.833 172.576 120.933C172.667 121.185 172.676 121.498 172.606 121.882L172.041 125.12C172.012 125.261 171.961 125.301 171.819 125.301H171.507C171.366 125.301 171.336 125.261 171.366 125.12L171.93 121.912C172.092 120.984 171.729 120.591 170.871 120.591C170.428 120.591 170.104 120.661 169.782 120.792C169.62 120.863 169.591 120.953 169.56 121.064L168.853 125.12C168.823 125.261 168.774 125.301 168.642 125.301H168.319C168.188 125.301 168.147 125.261 168.178 125.12L168.925 120.863C168.985 120.55 169.086 120.419 169.409 120.287C169.791 120.126 170.316 119.965 171.063 119.965C171.648 119.965 172.061 120.116 172.304 120.409C172.536 120.307 173.221 119.965 174.2 119.965Z" fill="#C80000"/>
<path d="M183.325 120.55C182.346 120.55 181.67 121.104 181.498 122.033L181.418 122.426C181.962 122.548 182.538 122.598 183.021 122.598C183.919 122.598 184.485 122.295 184.636 121.68C184.818 120.943 184.313 120.55 183.325 120.55ZM183.426 119.965C184.787 119.965 185.544 120.651 185.291 121.76C185.09 122.698 184.263 123.132 182.921 123.132C182.426 123.132 181.821 123.071 181.326 122.971L181.236 123.475C181.084 124.352 181.508 124.857 182.508 124.857C183.335 124.857 183.849 124.545 184.222 124.06C184.333 123.939 184.404 123.909 184.525 123.989L184.717 124.111C184.827 124.181 184.827 124.273 184.726 124.403C184.263 125.018 183.566 125.442 182.407 125.442C180.893 125.442 180.369 124.554 180.591 123.334L180.833 122.022C181.064 120.711 182.003 119.965 183.426 119.965Z" fill="#C80000"/>
<path d="M193.94 125.301H193.647C193.446 125.301 193.416 125.271 193.376 125.14L192.881 123.566C192.75 123.142 192.518 122.951 192.004 122.951H190.843L190.47 125.109C190.44 125.261 190.389 125.301 190.238 125.301H189.946C189.794 125.301 189.764 125.261 189.784 125.109L190.632 120.297C190.661 120.157 190.713 120.116 190.863 120.116H191.156C191.297 120.116 191.337 120.157 191.307 120.297L190.954 122.326H192.024H192.124L194.112 120.257C194.244 120.116 194.293 120.116 194.495 120.116H194.778C194.969 120.116 194.969 120.217 194.828 120.348L192.75 122.497C193.144 122.588 193.346 122.839 193.496 123.273L194.091 125.089C194.142 125.241 194.112 125.301 193.94 125.301Z" fill="#C80000"/>
</g>
<defs>
<clipPath id="clip0_300_20570">
<rect width="236" height="42" fill="white" transform="translate(0 85.0781)"/>
</clipPath>
</defs>
</svg>
