<svg width="302" height="64" viewBox="0 0 302 64" fill="none" xmlns="http://www.w3.org/2000/svg">
<g clip-path="url(#clip0_8_328)">
<path d="M60.1698 26.6344C60.3306 25.8779 60.0746 25.0952 59.5085 24.5692C51.8088 17.4266 43.1138 11.1161 33.6065 5.77204C32.9444 5.40117 32.1337 5.40117 31.4724 5.77204C21.9651 11.1161 13.2701 17.4266 5.57043 24.5692C5.00346 25.0952 4.74746 25.8779 4.90827 26.6344C7.27051 37.6908 10.5854 47.9251 14.7815 57.1271C15.0982 57.8212 15.7505 58.3095 16.5087 58.4006C27.1589 59.6822 37.9208 59.6822 48.5694 58.4006C49.3284 58.3095 49.9807 57.8212 50.2982 57.1271C54.4927 47.9259 57.8068 37.6908 60.1698 26.6344ZM65.0074 24.6758C65.0074 24.8195 64.9938 24.9622 64.9649 25.1041C63.6474 31.7167 62.0006 38.0617 60.0402 44.0941C58.08 50.1273 55.8031 55.848 53.2266 61.2149C53.0674 61.5465 52.8311 61.8277 52.5423 62.0369C52.2551 62.248 51.9138 62.3877 51.5511 62.4382C48.3971 62.8739 45.2324 63.2012 42.0619 63.4203C38.8906 63.6388 35.7152 63.7489 32.5382 63.7489C26.1874 63.7489 19.8351 63.3114 13.5277 62.4382C13.1634 62.3877 12.8237 62.248 12.5366 62.0369C12.2477 61.8277 12.0106 61.5465 11.8514 61.2149C9.27506 55.848 6.99974 50.1273 5.03955 44.0941C3.07853 38.0617 1.43176 31.7167 0.114018 25.1041C0.0853003 24.9622 0.0713501 24.8195 0.0713501 24.6758C0.0713501 24.0867 0.310119 23.5156 0.743352 23.0964C5.22827 18.7723 10.0586 14.7304 15.1959 10.9979C20.3339 7.26457 25.7805 3.83974 31.497 0.750512C31.8219 0.574925 32.1805 0.487122 32.5382 0.487122C32.8976 0.487122 33.2554 0.574925 33.5819 0.750512C39.2984 3.83974 44.7434 7.26457 49.8814 10.9979C55.0194 14.7304 59.8482 18.7723 64.3354 23.0964C64.7686 23.5156 65.0074 24.0867 65.0074 24.6758Z" fill="white"/>
<path d="M43.4077 30.2313H36.8937V23.7164C36.8937 22.5053 35.9107 21.5232 34.7004 21.5232H30.3788C29.1677 21.5232 28.1855 22.5053 28.1855 23.7164V30.2313H21.6707C20.4596 30.2313 19.4775 31.2127 19.4775 32.4245V36.7453C19.4775 37.9573 20.4596 38.9386 21.6707 38.9386H28.1855V45.4535C28.1855 46.6645 29.1677 47.6467 30.3788 47.6467H34.7004C35.9107 47.6467 36.8937 46.6645 36.8937 45.4535V38.9386H43.4077C44.6196 38.9386 45.6009 37.9573 45.6009 36.7453V32.4245C45.6009 31.2127 44.6196 30.2313 43.4077 30.2313Z" fill="white"/>
<path d="M86.2449 37.7775H96.6714L92.7434 27.3504C92.5292 26.8031 92.1372 26.5299 91.5655 26.5299C90.9945 26.5299 90.5889 26.8031 90.352 27.3504L86.2449 37.7775ZM98.1711 41.7767H84.6738L82.7095 46.7399H78.0677L86.5305 25.3155C86.9354 24.1726 87.5606 23.3693 88.4055 22.9057C89.2498 22.4413 90.3157 22.209 91.6006 22.209C92.8628 22.209 93.9101 22.4413 94.7434 22.9057C95.576 23.3693 96.1957 24.1726 96.6 25.3155L104.741 46.7399H100.064L98.1711 41.7767Z" fill="white"/>
<path d="M127.058 22.6376C128.415 22.6376 129.092 23.2923 129.092 24.6019V46.7402H124.845V27.2792C124.845 26.9937 124.701 26.8509 124.415 26.8509H112.989C112.68 26.8509 112.526 26.9937 112.526 27.2792V46.7402H108.311V24.6019C108.311 23.2923 108.978 22.6376 110.312 22.6376H127.058Z" fill="white"/>
<path d="M151.339 22.6376V26.8509H144.305V46.7402H140.055V26.8509H133.021V22.6376H151.339Z" fill="white"/>
<path d="M174.548 22.6376V26.8509H162.479C161.194 26.8509 160.265 27.125 159.694 27.6722C159.122 28.2203 158.838 28.958 158.838 29.886L158.841 32.7422H162.515H174.369V36.5633H162.407H158.73V39.4909C158.73 40.4435 159.027 41.1869 159.623 41.7227C160.217 42.2585 161.134 42.526 162.372 42.526H174.584V46.7402H162.372C160.944 46.7402 159.724 46.5736 158.712 46.2396C157.7 45.9065 156.866 45.4486 156.212 44.8653C155.557 44.2819 155.081 43.5853 154.784 42.7762C154.486 41.9672 154.338 41.0983 154.338 40.1694C154.338 38.7894 154.409 31.8979 154.409 29.2074C154.409 28.2556 154.564 27.3744 154.873 26.5654C155.182 25.7563 155.665 25.0597 156.319 24.4763C156.974 23.893 157.807 23.4408 158.818 23.1192C159.83 22.7984 161.051 22.6376 162.479 22.6376H174.548Z" fill="white"/>
<path d="M184.26 22.6376V32.8497H186.581C187.604 32.8497 188.444 32.8202 189.098 32.7602C189.753 32.7011 190.294 32.5642 190.724 32.35C191.151 32.1359 191.514 31.8322 191.812 31.4392C192.11 31.047 192.425 30.517 192.758 29.8507L196.437 22.6376H200.971L197.186 30.1362C196.639 31.207 196.055 32.0997 195.436 32.8136C194.817 33.5282 194.008 34.0993 193.009 34.5276C193.58 34.6712 194.079 34.8673 194.508 35.1168C194.937 35.367 195.335 35.6763 195.704 36.0456C196.073 36.4148 196.423 36.8554 196.758 37.3666C197.09 37.8786 197.436 38.48 197.793 39.1693L201.685 46.7402H196.972L193.294 39.5984C192.961 38.9559 192.639 38.4439 192.33 38.0632C192.02 37.6825 191.628 37.3847 191.151 37.1705C190.675 36.9563 190.081 36.8193 189.366 36.7594C188.652 36.7003 187.724 36.6708 186.581 36.6708H184.26V46.7402H180.047V22.6376H184.26Z" fill="white"/>
<path d="M211.968 37.7775H222.394L218.467 27.3504C218.252 26.8031 217.86 26.5299 217.288 26.5299C216.717 26.5299 216.313 26.8031 216.074 27.3504L211.968 37.7775ZM223.894 41.7767H210.398L208.433 46.7399H203.791L212.254 25.3155C212.658 24.1726 213.283 23.3693 214.128 22.9057C214.972 22.4413 216.038 22.209 217.324 22.209C218.585 22.209 219.633 22.4413 220.466 22.9057C221.3 23.3693 221.918 24.1726 222.322 25.3155L230.465 46.7399H225.787L223.894 41.7767Z" fill="white"/>
<path d="M244.212 22.6376C245.306 22.6376 246.216 22.7393 246.943 22.9411C247.669 23.1439 248.246 23.4762 248.674 23.9405C249.103 24.405 249.401 24.9998 249.567 25.726C249.734 26.4522 249.817 27.3391 249.817 28.3861V46.7402H245.604V28.6716C245.604 28.0291 245.473 27.5648 245.212 27.2792C244.948 26.9937 244.497 26.8509 243.854 26.8509H241.676V22.6376H244.212Z" fill="white"/>
<path d="M258.994 35.7061C258.708 36.04 258.566 36.4085 258.566 36.813C258.566 37.1937 258.691 37.4858 258.941 37.6885C259.19 37.8903 259.601 37.9912 260.173 37.9912H270.706V28.0294C270.706 27.2442 270.349 26.8511 269.635 26.8511H267.742C267.194 26.8511 266.778 26.9225 266.493 27.0653C266.207 27.208 265.897 27.4821 265.564 27.8866L258.994 35.7061ZM262.315 25.3512C262.696 24.8991 263.064 24.5069 263.421 24.173C263.779 23.8398 264.172 23.56 264.6 23.3336C265.028 23.108 265.51 22.9357 266.046 22.8158C266.582 22.6977 267.207 22.6378 267.921 22.6378H270.599C272.17 22.6378 273.289 23.0128 273.955 23.7619C274.621 24.5118 274.955 25.6015 274.955 27.0292V46.7395H270.706V41.7402H259.422C257.375 41.7402 255.935 41.3832 255.102 40.6694C254.268 39.9555 253.852 38.92 253.852 37.5629C253.852 36.6587 253.988 35.9203 254.263 35.3492C254.536 34.7781 254.899 34.2194 255.352 33.6712L262.315 25.3512Z" fill="white"/>
<path d="M283.81 30.3503C283.81 31.4219 284.1 32.2071 284.684 32.7068C285.267 33.2065 286.106 33.4568 287.202 33.4568H296.986C296.866 31.1478 296.302 29.4699 295.29 28.4221C294.278 27.3751 292.76 26.8508 290.737 26.8508H287.381C286.166 26.8508 285.267 27.1725 284.684 27.8149C284.1 28.4574 283.81 29.3034 283.81 30.3503ZM291.737 22.6375C293.141 22.6375 294.426 22.8582 295.593 23.298C296.759 23.7386 297.759 24.4287 298.593 25.369C299.425 26.3101 300.074 27.5171 300.538 28.9932C301.003 30.4701 301.234 32.2424 301.234 34.3134C301.234 38.5267 300.294 41.6512 298.414 43.6861C296.534 45.7218 293.844 46.74 290.345 46.74H282.417V42.5259H290.345C292.272 42.5259 293.772 42.0861 294.843 41.2049C295.915 40.3245 296.593 38.8722 296.879 36.8488H286.774C284.321 36.8488 282.53 36.3195 281.399 35.2594C280.268 34.201 279.703 32.5526 279.703 30.3142C279.703 29.2434 279.846 28.2375 280.132 27.2972C280.417 26.3569 280.876 25.5421 281.506 24.8512C282.137 24.1612 282.958 23.6197 283.97 23.2266C284.982 22.8336 286.225 22.6375 287.702 22.6375H291.737Z" fill="white"/>
<path d="M80.9704 54.8171C82.1384 54.8171 82.6277 55.3627 82.7415 56.1192C82.7612 56.2636 82.7317 56.3301 82.5981 56.3686L82.3686 56.4359C82.2246 56.4934 82.1772 56.4548 82.1483 56.3202C82.0523 55.7262 81.7071 55.3914 80.8843 55.3914C79.9354 55.3914 79.3711 55.8903 79.2264 56.6944L78.9692 58.15C78.8246 58.9549 79.2264 59.4522 80.1661 59.4522C80.9606 59.4522 81.4584 59.1174 81.7741 58.4659C81.8418 58.3322 81.8991 58.3133 82.0338 58.351L82.2824 58.4371C82.3969 58.4856 82.4258 58.543 82.3495 58.6768C81.8991 59.558 81.2098 60.0174 80.0695 60.0174C78.6997 60.0174 78.1255 59.261 78.3366 58.0827L78.5852 56.6657C78.7957 55.4965 79.5624 54.8171 80.9704 54.8171Z" fill="white"/>
<path d="M89.6603 55.3723C88.7317 55.3723 88.0898 55.8991 87.9267 56.7803L87.8504 57.1536C88.3674 57.2693 88.9138 57.317 89.3723 57.317C90.2246 57.317 90.7624 57.0298 90.9058 56.4456C91.0781 55.7456 90.5987 55.3723 89.6603 55.3723ZM89.7563 54.8168C91.0486 54.8168 91.7674 55.4683 91.528 56.521C91.3366 57.4121 90.5514 57.824 89.2769 57.824C88.808 57.824 88.2332 57.7666 87.763 57.6714L87.6781 58.1498C87.5335 58.9826 87.9354 59.4618 88.8849 59.4618C89.6701 59.4618 90.1581 59.1656 90.5126 58.7053C90.6178 58.5904 90.6849 58.5616 90.8 58.6379L90.9821 58.7536C91.0873 58.8201 91.0873 58.9071 90.9913 59.031C90.5513 59.6152 89.8898 60.0173 88.7889 60.0173C87.352 60.0173 86.8541 59.1746 87.0652 58.016L87.2947 56.7705C87.5144 55.5258 88.4055 54.8168 89.7563 54.8168Z" fill="white"/>
<path d="M101.492 54.8171C102.708 54.8171 103.13 55.5063 102.919 56.6846L102.393 59.7115C102.363 59.8452 102.316 59.8838 102.182 59.8838H101.885C101.75 59.8838 101.722 59.8452 101.742 59.7115L102.287 56.6657C102.431 55.8132 102.134 55.4112 101.31 55.4112C100.668 55.4112 100.161 55.6409 99.9502 55.7361C100.036 55.9757 100.046 56.2727 99.9791 56.637L99.4425 59.7115C99.4142 59.8452 99.3662 59.8838 99.2314 59.8838H98.9354C98.8013 59.8838 98.7729 59.8452 98.8013 59.7115L99.3373 56.6657C99.4905 55.7845 99.1459 55.4112 98.3311 55.4112C97.9102 55.4112 97.6037 55.4784 97.2973 55.6023C97.144 55.6696 97.1151 55.7558 97.0868 55.8608L96.4154 59.7115C96.3865 59.8452 96.3397 59.8838 96.2142 59.8838H95.9083C95.7834 59.8838 95.7453 59.8452 95.7736 59.7115L96.4837 55.6696C96.5409 55.3726 96.6363 55.2479 96.9428 55.1232C97.3065 54.9706 97.8043 54.8171 98.5133 54.8171C99.0689 54.8171 99.4609 54.9607 99.6917 55.2389C99.9114 55.142 100.563 54.8171 101.492 54.8171Z" fill="white"/>
<path d="M109.438 59.4429C110.367 59.4429 110.884 59.0409 111.038 58.1974C111.171 57.4121 110.779 56.9912 109.917 56.9912C109.39 56.9912 108.93 57.1061 108.499 57.2595L108.184 59.0023C108.164 59.1558 108.174 59.1844 108.327 59.2608C108.586 59.3576 108.94 59.4429 109.438 59.4429ZM110.051 56.4358C111.277 56.4358 111.871 57.1061 111.67 58.2458C111.459 59.4528 110.702 60.0173 109.42 60.0173C108.642 60.0173 108.135 59.8934 107.791 59.7498C107.503 59.6251 107.446 59.5201 107.503 59.2132L108.231 55.1328C108.259 54.999 108.308 54.9604 108.441 54.9604H108.719C108.854 54.9604 108.892 54.999 108.863 55.1328L108.596 56.6942C109.054 56.5408 109.524 56.4358 110.051 56.4358Z" fill="white"/>
<path d="M125.018 54.8171C126.186 54.8171 126.675 55.3627 126.789 56.1192C126.809 56.2636 126.779 56.3301 126.646 56.3686L126.416 56.4359C126.272 56.4934 126.225 56.4548 126.196 56.3202C126.099 55.7262 125.754 55.3914 124.932 55.3914C123.983 55.3914 123.418 55.8903 123.274 56.6944L123.017 58.15C122.872 58.9549 123.274 59.4522 124.214 59.4522C125.008 59.4522 125.506 59.1174 125.822 58.4659C125.889 58.3322 125.946 58.3133 126.081 58.351L126.33 58.4371C126.444 58.4856 126.473 58.543 126.397 58.6768C125.946 59.558 125.257 60.0174 124.117 60.0174C122.747 60.0174 122.173 59.261 122.384 58.0827L122.633 56.6657C122.843 55.4965 123.61 54.8171 125.018 54.8171Z" fill="white"/>
<path d="M133.708 55.4012C132.817 55.4012 132.175 55.8418 132.041 56.5795L131.744 58.2648C131.609 58.9926 132.108 59.4332 132.989 59.4332C133.898 59.4332 134.531 58.9926 134.665 58.2648L134.962 56.5795C135.096 55.8418 134.609 55.4012 133.708 55.4012ZM133.794 54.817C135.116 54.817 135.796 55.5161 135.604 56.6082L135.306 58.2935C135.116 59.3848 134.234 60.0174 132.913 60.0174C131.609 60.0174 130.911 59.338 131.102 58.2459L131.399 56.5598C131.591 55.4685 132.492 54.817 133.794 54.817Z" fill="white"/>
<path d="M141.402 55.1328L140.876 58.1309C140.733 58.9924 141.068 59.4331 141.987 59.4331C142.657 59.4331 143.04 59.2804 143.452 59.1935L144.17 55.1328C144.19 54.999 144.247 54.9604 144.372 54.9604H144.668C144.793 54.9604 144.841 54.999 144.812 55.1328L144.103 59.1656C144.64 59.1081 144.889 59.3666 144.774 60.0075L144.601 61.0421C144.573 61.1767 144.534 61.2144 144.41 61.2144H144.132C143.998 61.2144 143.95 61.1767 143.98 61.0421L144.152 60.0846C144.19 59.845 144.103 59.6538 143.759 59.7112C143.241 59.8064 142.715 60.0173 141.814 60.0173C140.502 60.0173 140.033 59.2804 140.244 58.1022L140.761 55.1328C140.79 54.999 140.838 54.9604 140.972 54.9604H141.268C141.393 54.9604 141.431 54.999 141.402 55.1328Z" fill="white"/>
<path d="M154.145 55.1328L153.436 59.1746C153.378 59.4716 153.292 59.5767 152.976 59.7014C152.583 59.8549 152.009 60.0173 151.137 60.0173C149.825 60.0173 149.366 59.2804 149.577 58.1022L150.094 55.1328C150.122 54.999 150.17 54.9604 150.303 54.9604H150.601C150.725 54.9604 150.764 54.999 150.735 55.1328L150.208 58.1219C150.065 58.9826 150.39 59.4331 151.319 59.4331C151.866 59.4331 152.297 59.3379 152.612 59.2222C152.765 59.1558 152.814 59.0795 152.832 58.9547L153.503 55.1328C153.522 54.999 153.58 54.9604 153.705 54.9604H154.001C154.126 54.9604 154.174 54.999 154.145 55.1328Z" fill="white"/>
<path d="M161.102 55.4108C160.106 55.4108 159.588 55.7743 159.415 56.7228L159.176 58.0545C159.023 58.8972 159.359 59.433 160.259 59.433C160.911 59.433 161.446 59.2992 161.734 59.2032L162.327 55.8514C162.347 55.698 162.327 55.6603 162.175 55.593C161.926 55.4962 161.581 55.4108 161.102 55.4108ZM161.159 54.8168C161.877 54.8168 162.423 54.9603 162.73 55.104C163.018 55.2385 163.065 55.3148 163.008 55.6315L162.327 59.5101C162.299 59.6438 162.233 59.6923 162.088 59.7398C161.61 59.8736 160.978 60.0172 160.116 60.0172C158.802 60.0172 158.334 59.1843 158.545 58.0061L158.784 56.6366C159.004 55.3624 159.761 54.8168 161.159 54.8168Z" fill="white"/>
<path d="M172.043 55.1328L171.248 59.7113C171.22 59.845 171.163 59.8836 171.038 59.8836H170.741C170.607 59.8836 170.578 59.845 170.597 59.7113L171.326 55.5636H169.324L168.949 57.1439C168.375 59.5767 167.82 59.6924 167.073 60.0075C166.967 60.0461 166.91 60.0173 166.881 59.9221L166.785 59.6251C166.757 59.5291 166.775 59.4913 166.871 59.443C167.274 59.2518 167.82 59.2518 168.327 57.0873L168.786 55.1328C168.825 54.999 168.874 54.9605 168.998 54.9605H171.91C172.033 54.9605 172.072 54.999 172.043 55.1328Z" fill="white"/>
<path d="M178.33 59.4429C179.26 59.4429 179.777 59.0409 179.93 58.1974C180.064 57.4121 179.671 56.9912 178.809 56.9912C178.282 56.9912 177.823 57.1061 177.391 57.2595L177.076 59.0023C177.057 59.1558 177.066 59.1844 177.219 59.2608C177.478 59.3576 177.833 59.4429 178.33 59.4429ZM178.944 56.4358C180.17 56.4358 180.764 57.1061 180.562 58.2458C180.352 59.4528 179.594 60.0173 178.312 60.0173C177.535 60.0173 177.028 59.8934 176.683 59.7498C176.396 59.6251 176.338 59.5201 176.396 59.2132L177.123 55.1328C177.152 54.999 177.2 54.9604 177.334 54.9604H177.612C177.746 54.9604 177.785 54.999 177.756 55.1328L177.488 56.6942C177.947 56.5408 178.416 56.4358 178.944 56.4358Z" fill="white"/>
<path d="M189.904 55.1328L189.109 59.7112C189.08 59.8449 189.033 59.8835 188.898 59.8835H188.602C188.467 59.8835 188.439 59.8449 188.458 59.7112L188.822 57.6517H186.044L185.69 59.7112C185.661 59.8449 185.614 59.8835 185.479 59.8835H185.183C185.058 59.8835 185.019 59.8449 185.038 59.7112L185.843 55.1328C185.872 54.999 185.92 54.9604 186.054 54.9604H186.351C186.475 54.9604 186.513 54.999 186.485 55.1328L186.15 57.0585H188.927L189.263 55.1328C189.291 54.999 189.339 54.9604 189.474 54.9604H189.77C189.894 54.9604 189.932 54.999 189.904 55.1328Z" fill="white"/>
<path d="M200.377 55.1328L199.572 59.7112C199.543 59.845 199.495 59.8835 199.37 59.8835H199.064C198.94 59.8835 198.902 59.845 198.93 59.7112L199.735 55.1328C199.754 54.999 199.812 54.9604 199.936 54.9604H200.233C200.367 54.9604 200.406 54.999 200.377 55.1328ZM196.19 59.4429C197.12 59.4429 197.637 59.0409 197.791 58.1974C197.925 57.4121 197.532 56.9912 196.67 56.9912C196.143 56.9912 195.683 57.1061 195.252 57.2595L194.937 59.0023C194.918 59.1558 194.927 59.1836 195.08 59.2608C195.338 59.3568 195.693 59.4429 196.19 59.4429ZM196.804 56.4358C198.031 56.4358 198.624 57.1061 198.423 58.2458C198.212 59.4528 197.455 60.0173 196.172 60.0173C195.396 60.0173 194.889 59.8934 194.545 59.7498C194.257 59.6251 194.199 59.5201 194.257 59.2132L194.984 55.1328C195.013 54.999 195.06 54.9604 195.195 54.9604H195.473C195.607 54.9604 195.645 54.999 195.616 55.1328L195.348 56.6942C195.808 56.5408 196.278 56.4358 196.804 56.4358Z" fill="white"/>
<path d="M209.202 55.1521L207.162 57.3552L208.503 59.692C208.569 59.8167 208.522 59.884 208.34 59.884H208.1C207.919 59.884 207.889 59.8643 207.823 59.7404L206.721 57.8146L204.969 59.7404C204.863 59.8643 204.806 59.884 204.633 59.884H204.318C204.126 59.884 204.116 59.8167 204.23 59.692L206.377 57.3552L205.103 55.1521C205.054 55.0372 205.083 54.9609 205.275 54.9609H205.505C205.687 54.9609 205.726 54.9798 205.783 55.1036L206.826 56.8858L208.474 55.1036C208.589 54.9798 208.618 54.9609 208.8 54.9609H209.125C209.298 54.9609 209.318 55.0281 209.202 55.1521Z" fill="white"/>
<path d="M221.957 55.4108C220.961 55.4108 220.443 55.7743 220.271 56.7228L220.032 58.0545C219.878 58.8972 220.214 59.433 221.114 59.433C221.766 59.433 222.302 59.2992 222.59 59.2032L223.183 55.8514C223.202 55.698 223.183 55.6603 223.03 55.593C222.78 55.4962 222.436 55.4108 221.957 55.4108ZM222.014 54.8168C222.732 54.8168 223.279 54.9603 223.585 55.104C223.873 55.2385 223.92 55.3148 223.863 55.6315L223.183 59.5101C223.154 59.6438 223.087 59.6923 222.943 59.7398C222.465 59.8736 221.833 60.0172 220.97 60.0172C219.658 60.0172 219.189 59.1843 219.4 58.0061L219.639 56.6366C219.858 55.3624 220.616 54.8168 222.014 54.8168Z" fill="white"/>
<path d="M231.175 54.8171C232.487 54.8171 232.956 55.5638 232.745 56.742L232.228 59.7115C232.199 59.8452 232.142 59.8838 232.017 59.8838H231.72C231.586 59.8838 231.558 59.8452 231.577 59.7115L232.103 56.7141C232.256 55.8518 231.921 55.4112 230.993 55.4112C230.446 55.4112 229.996 55.5162 229.689 55.6212C229.546 55.6795 229.517 55.7558 229.489 55.8608L228.818 59.7115C228.79 59.8452 228.742 59.8838 228.617 59.8838H228.311C228.185 59.8838 228.148 59.8452 228.177 59.7115L228.886 55.6696C228.943 55.3726 229.029 55.2675 229.346 55.142C229.738 54.9894 230.312 54.8171 231.175 54.8171Z" fill="white"/>
<path d="M242.968 54.8171C244.184 54.8171 244.606 55.5063 244.394 56.6846L243.869 59.7115C243.839 59.8452 243.791 59.8838 243.658 59.8838H243.361C243.226 59.8838 243.198 59.8452 243.217 59.7115L243.763 56.6657C243.907 55.8132 243.609 55.4112 242.786 55.4112C242.144 55.4112 241.637 55.6409 241.426 55.7361C241.512 55.9757 241.521 56.2727 241.455 56.637L240.918 59.7115C240.89 59.8452 240.842 59.8838 240.707 59.8838H240.411C240.278 59.8838 240.249 59.8452 240.278 59.7115L240.813 56.6657C240.967 55.7845 240.622 55.4112 239.807 55.4112C239.386 55.4112 239.079 55.4784 238.774 55.6023C238.62 55.6696 238.591 55.7558 238.562 55.8608L237.891 59.7115C237.863 59.8452 237.816 59.8838 237.69 59.8838H237.384C237.26 59.8838 237.221 59.8452 237.25 59.7115L237.959 55.6696C238.017 55.3726 238.112 55.2479 238.419 55.1232C238.782 54.9706 239.281 54.8171 239.99 54.8171C240.545 54.8171 240.937 54.9607 241.167 55.2389C241.388 55.142 242.039 54.8171 242.968 54.8171Z" fill="white"/>
<path d="M251.632 55.3723C250.703 55.3723 250.062 55.8991 249.898 56.7803L249.822 57.1536C250.339 57.2693 250.886 57.317 251.344 57.317C252.197 57.317 252.734 57.0298 252.878 56.4456C253.05 55.7456 252.571 55.3723 251.632 55.3723ZM251.728 54.8168C253.02 54.8168 253.739 55.4683 253.5 56.521C253.308 57.4121 252.523 57.824 251.249 57.824C250.78 57.824 250.206 57.7666 249.735 57.6714L249.65 58.1498C249.505 58.9826 249.908 59.4618 250.857 59.4618C251.642 59.4618 252.13 59.1656 252.485 58.7053C252.59 58.5904 252.657 58.5616 252.772 58.6379L252.954 58.7536C253.059 58.8201 253.059 58.9071 252.963 59.031C252.523 59.6152 251.862 60.0173 250.761 60.0173C249.324 60.0173 248.826 59.1746 249.037 58.016L249.266 56.7705C249.487 55.5258 250.378 54.8168 251.728 54.8168Z" fill="white"/>
<path d="M261.711 59.8836H261.433C261.242 59.8836 261.214 59.8549 261.175 59.7302L260.705 58.2361C260.581 57.834 260.361 57.6518 259.873 57.6518H258.77L258.416 59.7015C258.388 59.8451 258.34 59.8836 258.196 59.8836H257.918C257.775 59.8836 257.746 59.8451 257.765 59.7015L258.57 55.1329C258.598 54.9992 258.647 54.9606 258.79 54.9606H259.068C259.201 54.9606 259.24 54.9992 259.211 55.1329L258.876 57.0586H259.892H259.986L261.874 55.0943C261.999 54.9606 262.046 54.9606 262.238 54.9606H262.506C262.688 54.9606 262.688 55.0566 262.554 55.1813L260.581 57.2211C260.955 57.3072 261.147 57.546 261.29 57.9579L261.855 59.6826C261.903 59.8262 261.874 59.8836 261.711 59.8836Z" fill="white"/>
</g>
<defs>
<clipPath id="clip0_8_328">
<rect width="301.538" height="64" fill="white"/>
</clipPath>
</defs>
</svg>
