<svg width="319" height="70" viewBox="0 0 319 70" fill="none" xmlns="http://www.w3.org/2000/svg">
<g clip-path="url(#clip0_8_327)">
<path d="M92.133 40.9389L96.4587 29.9576C96.7083 29.3811 97.1354 29.0925 97.7369 29.0925C98.339 29.0925 98.7519 29.3811 98.9774 29.9576L103.115 40.9389H92.133ZM101.084 25.2754C100.206 24.7862 99.1032 24.5417 97.7738 24.5417C96.4205 24.5417 95.2979 24.7862 94.4086 25.2754C93.5187 25.7636 92.8602 26.6106 92.4337 27.8135L83.5204 50.3786H88.4094L90.4783 45.151H104.694L106.687 50.3786H111.614L103.039 27.8135C102.614 26.6106 101.961 25.7636 101.084 25.2754Z" fill="#C90C0F"/>
<path d="M135.119 24.9931H117.481C116.076 24.9931 115.374 25.6827 115.374 27.062V50.3789H119.813V29.8827C119.813 29.582 119.975 29.4307 120.301 29.4307H132.336C132.636 29.4307 132.787 29.582 132.787 29.8827V50.3789H137.262V27.062C137.262 25.6827 136.548 24.9931 135.119 24.9931Z" fill="#C90C0F"/>
<path d="M141.399 29.4309H148.808V50.3782H153.284V29.4309H160.692V24.9932H141.399V29.4309Z" fill="#C90C0F"/>
<path d="M169.418 45.0945C168.79 44.531 168.477 43.7472 168.477 42.7439V39.6604H172.351H184.95V35.6367H172.464H168.594L168.59 32.6276C168.59 31.6502 168.891 30.8732 169.493 30.296C170.094 29.7195 171.072 29.4309 172.426 29.4309H185.137V24.9932H172.426C170.921 24.9932 169.637 25.1627 168.571 25.5014C167.505 25.8393 166.628 26.3164 165.939 26.9299C165.249 27.5443 164.741 28.278 164.415 29.1302C164.09 29.9831 163.926 30.9104 163.926 31.9129C163.926 34.7466 163.852 42.005 163.852 43.4586C163.852 44.4368 164.007 45.352 164.322 46.2041C164.635 47.0571 165.136 47.7899 165.825 48.4043C166.515 49.0188 167.393 49.5019 168.459 49.8519C169.524 50.2036 170.808 50.3782 172.313 50.3782H185.175V45.9405H172.313C171.009 45.9405 170.044 45.6588 169.418 45.0945Z" fill="#C90C0F"/>
<path d="M208.53 40.5064C208.178 39.9671 207.808 39.5039 207.42 39.115C207.031 38.7261 206.611 38.4004 206.16 38.1368C205.708 37.8741 205.183 37.6675 204.582 37.5171C205.633 37.0652 206.486 36.4637 207.138 35.7118C207.79 34.9591 208.404 34.0189 208.98 32.8911L212.967 24.9932H208.19L204.318 32.5904C203.966 33.2921 203.634 33.8495 203.322 34.2634C203.007 34.6774 202.625 34.9971 202.174 35.2227C201.723 35.4482 201.152 35.5926 200.463 35.6548C199.773 35.7179 198.889 35.749 197.811 35.749H195.367V24.9932H190.929V50.3781H195.367V39.7727H197.811C199.014 39.7727 199.993 39.8046 200.744 39.8669C201.496 39.93 202.124 40.0743 202.625 40.2998C203.126 40.5254 203.54 40.8391 203.867 41.2401C204.191 41.6411 204.53 42.1804 204.881 42.857L208.756 50.3781H213.719L209.62 42.4059C209.244 41.6782 208.88 41.0465 208.53 40.5064Z" fill="#C90C0F"/>
<path d="M224.55 40.9389L228.875 29.9576C229.125 29.3811 229.551 29.0925 230.153 29.0925C230.756 29.0925 231.169 29.3811 231.394 29.9576L235.531 40.9389H224.55ZM233.5 25.2754C232.623 24.7862 231.519 24.5417 230.191 24.5417C228.837 24.5417 227.715 24.7862 226.825 25.2754C225.935 25.7636 225.276 26.6106 224.851 27.8135L215.937 50.3786H220.826L222.895 45.151H237.111L239.104 50.3786H244.03L235.456 27.8135C235.03 26.6106 234.378 25.7636 233.5 25.2754Z" fill="#C90C0F"/>
<path d="M263.21 26.3662C262.759 25.877 262.151 25.5261 261.387 25.3126C260.621 25.1001 259.663 24.9929 258.51 24.9929H255.84V29.4306H258.133C258.81 29.4306 259.286 29.5818 259.562 29.8825C259.838 30.1833 259.977 30.6715 259.977 31.3491V50.3787H264.414V31.0475C264.414 29.9456 264.326 29.0114 264.151 28.2466C263.975 27.4818 263.661 26.8544 263.21 26.3662Z" fill="#C90C0F"/>
<path d="M286.415 41.1647H275.32C274.719 41.1647 274.286 41.0584 274.022 40.845C273.758 40.6324 273.627 40.3247 273.627 39.9237C273.627 39.4977 273.778 39.1096 274.079 38.758L280.999 30.5221C281.349 30.0952 281.676 29.8066 281.976 29.6571C282.278 29.5058 282.716 29.4307 283.293 29.4307H285.286C286.038 29.4307 286.415 29.8446 286.415 30.6717V41.1647ZM286.301 24.993H283.481C282.728 24.993 282.071 25.0561 281.506 25.1814C280.942 25.3067 280.434 25.4882 279.983 25.7267C279.532 25.9652 279.119 26.2591 278.743 26.6108C278.367 26.9617 277.976 27.3756 277.577 27.8518L270.243 36.6139C269.766 37.1911 269.384 37.7796 269.096 38.382C268.808 38.9835 268.663 39.7604 268.663 40.7136C268.663 42.1421 269.102 43.2336 269.98 43.9855C270.857 44.7373 272.374 45.1133 274.53 45.1133H286.415V50.3788H290.89V29.6191C290.89 28.1145 290.538 26.9677 289.837 26.1778C289.134 25.388 287.957 24.993 286.301 24.993Z" fill="#C90C0F"/>
<path d="M303.789 36.3884C302.635 36.3884 301.752 36.1249 301.137 35.5986C300.523 35.0723 300.216 34.2452 300.216 33.1165C300.216 32.0138 300.523 31.1237 301.137 30.4462C301.752 29.7695 302.698 29.4308 303.978 29.4308H307.513C309.643 29.4308 311.241 29.983 312.306 31.0857C313.373 32.1893 313.967 33.9574 314.094 36.3884H303.789ZM317.836 31.688C317.346 30.1334 316.663 28.8613 315.787 27.87C314.908 26.8805 313.855 26.1528 312.627 25.6888C311.398 25.2256 310.044 24.9931 308.565 24.9931H304.315C302.762 24.9931 301.451 25.1997 300.386 25.6136C299.319 26.0275 298.454 26.5979 297.79 27.3247C297.126 28.0524 296.643 28.9114 296.343 29.9009C296.042 30.8921 295.891 31.9508 295.891 33.0786C295.891 35.4361 296.486 37.1723 297.678 38.2879C298.868 39.4036 300.755 39.961 303.338 39.961H313.981C313.68 42.093 312.965 43.6226 311.837 44.549C310.709 45.4772 309.13 45.9413 307.099 45.9413H298.75V50.378H307.099C310.784 50.378 313.618 49.3073 315.598 47.1632C317.578 45.0191 318.569 41.7291 318.569 37.2906C318.569 35.1102 318.324 33.2419 317.836 31.688Z" fill="#C90C0F"/>
<path d="M69.7187 27.592C68.3317 34.5574 66.5985 41.2385 64.5319 47.5921C62.4673 53.9457 60.0709 59.9709 57.3582 65.6244C57.1914 65.9737 56.9417 66.2693 56.6366 66.4903C56.3324 66.7113 55.9746 66.8591 55.5909 66.9129C52.2698 67.3718 48.9358 67.7166 45.5965 67.9473C42.2581 68.1774 38.9136 68.2921 35.5674 68.2921C28.8777 68.2921 22.188 67.8313 15.5448 66.9129C15.1611 66.8591 14.8034 66.7113 14.5 66.4903C14.1959 66.2693 13.9461 65.9737 13.7793 65.6244C11.064 59.9709 8.66845 53.9457 6.6039 47.5921C4.53758 41.2385 2.80486 34.5574 1.41696 27.592C1.38758 27.4416 1.37203 27.2895 1.37203 27.1383C1.37203 26.5195 1.62265 25.9163 2.07808 25.4781C6.80437 20.9221 11.891 16.6659 17.3026 12.7339C22.7134 8.80173 28.4482 5.19543 34.4699 1.94173C34.8113 1.75593 35.1907 1.66346 35.5674 1.66346C35.946 1.66346 36.3228 1.75593 36.665 1.94173C42.6884 5.19543 48.4224 8.80173 53.834 12.7339C59.2439 16.6659 64.3314 20.9221 69.0569 25.4781C69.5132 25.918 69.7647 26.5204 69.7647 27.1417C69.7647 27.2921 69.7492 27.4425 69.7187 27.592ZM69.9079 24.5966C65.17 20.0285 60.0044 15.7041 54.5539 11.7435C49.106 7.78628 43.2839 4.12556 37.2518 0.866672C36.7367 0.586677 36.1543 0.439758 35.5674 0.439758C34.9815 0.439758 34.3999 0.58667 33.8874 0.864942C27.8528 4.12556 22.0298 7.78628 16.5828 11.7435C11.1297 15.7058 5.96524 20.0302 1.23203 24.595C0.542397 25.2561 0.147461 26.1842 0.147461 27.14C0.147461 27.3673 0.169926 27.598 0.215728 27.8322C1.60622 34.8072 3.36401 41.5833 5.43981 47.9715C7.51649 54.3631 9.95178 60.4807 12.6748 66.1539C12.9263 66.6789 13.3083 67.1365 13.7776 67.48C14.2477 67.8229 14.8008 68.0465 15.3772 68.1269C22.0506 69.0498 28.8432 69.5178 35.5674 69.5178C42.2918 69.5178 49.0852 69.0498 55.762 68.1262C56.3393 68.0458 56.8915 67.8222 57.3573 67.4807C57.8258 67.1391 58.2085 66.6821 58.4618 66.1552C61.1918 60.4669 63.6262 54.3484 65.6989 47.9715C67.7762 41.5781 69.5333 34.8028 70.9217 27.827C70.9657 27.598 70.9891 27.3673 70.9891 27.14C70.9891 26.1859 70.595 25.2578 69.9079 24.5966Z" fill="#C90C0F"/>
<path d="M49.325 39.8528C49.325 41.1284 48.2914 42.1628 47.015 42.1628H40.1541V49.0237C40.1541 50.2992 39.1188 51.3337 37.8441 51.3337H33.2924C32.0168 51.3337 30.9824 50.2992 30.9824 49.0237V42.1628H24.1207C22.8451 42.1628 21.8116 41.1284 21.8116 39.8528V35.3011C21.8116 34.0255 22.8451 32.992 24.1207 32.992H30.9824V26.1302C30.9824 24.8547 32.0168 23.8202 33.2924 23.8202H37.8441C39.1188 23.8202 40.1541 24.8547 40.1541 26.1302V32.992H47.015C48.2914 32.992 49.325 34.0255 49.325 35.3011V39.8528ZM36.6913 7.23107C35.9947 6.83875 35.1418 6.83875 34.4435 7.23107C24.4301 12.8596 15.2739 19.5044 7.16425 27.0273C6.56621 27.5812 6.2966 28.4065 6.46598 29.2042C8.95489 40.8466 12.4454 51.6275 16.8649 61.3177C17.1993 62.0514 17.8855 62.5648 18.6849 62.6616C29.8995 64.0098 41.2353 64.0098 52.4517 62.6616C53.2519 62.5648 53.9372 62.0514 54.2717 61.3177C58.692 51.6275 62.1817 40.8466 64.6688 29.2042C64.8401 28.4065 64.5703 27.5812 63.9723 27.0273C55.8627 19.5044 46.7047 12.8596 36.6913 7.23107Z" fill="#C51618"/>
<path d="M86.5777 58.8867C87.8078 58.8867 88.3231 59.4614 88.443 60.2581C88.4638 60.4103 88.4327 60.4803 88.292 60.5208L88.0502 60.5917C87.8986 60.6522 87.8487 60.6116 87.8182 60.4699C87.7171 59.8442 87.3535 59.4916 86.4869 59.4916C85.4875 59.4916 84.8931 60.017 84.7408 60.864L84.4699 62.397C84.3176 63.2448 84.7408 63.7685 85.7305 63.7685C86.5673 63.7685 87.0916 63.4159 87.4241 62.7297C87.4954 62.5889 87.5557 62.569 87.6977 62.6088L87.9595 62.6995C88.0801 62.7505 88.1105 62.811 88.0302 62.9518C87.5557 63.88 86.8298 64.364 85.6288 64.364C84.186 64.364 83.5813 63.5671 83.8036 62.3262L84.0654 60.8337C84.2871 59.6022 85.0947 58.8867 86.5777 58.8867Z" fill="#C51618"/>
<path d="M95.7309 59.4716C94.7528 59.4716 94.0768 60.0264 93.905 60.9545L93.8246 61.3477C94.3691 61.4695 94.9446 61.5197 95.4275 61.5197C96.3252 61.5197 96.8917 61.2172 97.0427 60.6019C97.2242 59.8647 96.7193 59.4716 95.7309 59.4716ZM95.832 58.8865C97.1931 58.8865 97.9501 59.5727 97.698 60.6814C97.4964 61.6199 96.6694 62.0538 95.3271 62.0538C94.8332 62.0538 94.2278 61.9932 93.7326 61.893L93.6432 62.3968C93.4908 63.274 93.9141 63.7787 94.9142 63.7787C95.7412 63.7787 96.2552 63.4667 96.6285 62.9819C96.7394 62.8609 96.81 62.8306 96.9312 62.911L97.1231 63.0329C97.2339 63.1029 97.2339 63.1945 97.1328 63.325C96.6694 63.9403 95.9726 64.3638 94.8131 64.3638C93.2996 64.3638 92.7753 63.4762 92.9976 62.256L93.2394 60.9441C93.4708 59.6331 94.4093 58.8865 95.832 58.8865Z" fill="#C51618"/>
<path d="M108.193 58.8867C109.473 58.8867 109.917 59.6126 109.695 60.8536L109.142 64.0416C109.111 64.1825 109.06 64.2231 108.919 64.2231H108.606C108.465 64.2231 108.435 64.1825 108.455 64.0416L109.03 60.8337C109.182 59.9358 108.868 59.5123 108.001 59.5123C107.325 59.5123 106.791 59.7543 106.568 59.8545C106.659 60.1069 106.669 60.4197 106.599 60.8034L106.034 64.0416C106.005 64.1825 105.953 64.2231 105.811 64.2231H105.5C105.359 64.2231 105.329 64.1825 105.359 64.0416L105.923 60.8337C106.085 59.9055 105.722 59.5123 104.864 59.5123C104.421 59.5123 104.097 59.5832 103.775 59.7137C103.613 59.7845 103.583 59.8753 103.553 59.9859L102.846 64.0416C102.816 64.1825 102.766 64.2231 102.634 64.2231H102.311C102.181 64.2231 102.14 64.1825 102.17 64.0416L102.917 59.7845C102.978 59.4717 103.078 59.3404 103.402 59.209C103.784 59.0482 104.309 58.8867 105.056 58.8867C105.64 58.8867 106.054 59.0379 106.296 59.3308C106.528 59.2289 107.214 58.8867 108.193 58.8867Z" fill="#C51618"/>
<path d="M116.56 63.7587C117.54 63.7587 118.084 63.3353 118.246 62.4469C118.386 61.6198 117.973 61.1765 117.065 61.1765C116.51 61.1765 116.026 61.2975 115.572 61.4591L115.24 63.2946C115.219 63.4563 115.23 63.4865 115.39 63.5669C115.663 63.6689 116.037 63.7587 116.56 63.7587ZM117.207 60.5915C118.498 60.5915 119.124 61.2975 118.912 62.4979C118.69 63.7691 117.892 64.3637 116.542 64.3637C115.723 64.3637 115.189 64.2332 114.826 64.0819C114.523 63.9506 114.462 63.84 114.523 63.5168L115.289 59.2191C115.319 59.0782 115.37 59.0376 115.511 59.0376H115.804C115.945 59.0376 115.985 59.0782 115.956 59.2191L115.674 60.8637C116.157 60.702 116.651 60.5915 117.207 60.5915Z" fill="#C51618"/>
<path d="M132.97 58.8867C134.2 58.8867 134.716 59.4614 134.836 60.2581C134.856 60.4103 134.825 60.4803 134.685 60.5208L134.443 60.5917C134.291 60.6522 134.241 60.6116 134.211 60.4699C134.109 59.8442 133.746 59.4916 132.879 59.4916C131.88 59.4916 131.286 60.017 131.133 60.864L130.862 62.397C130.71 63.2448 131.133 63.7685 132.123 63.7685C132.96 63.7685 133.484 63.4159 133.817 62.7297C133.888 62.5889 133.948 62.569 134.09 62.6088L134.352 62.6995C134.473 62.7505 134.503 62.811 134.423 62.9518C133.948 63.88 133.222 64.364 132.021 64.364C130.579 64.364 129.974 63.5671 130.196 62.3262L130.458 60.8337C130.68 59.6022 131.487 58.8867 132.97 58.8867Z" fill="#C51618"/>
<path d="M142.123 59.5019C141.185 59.5019 140.509 59.966 140.368 60.7429L140.055 62.518C139.914 63.2845 140.439 63.7485 141.367 63.7485C142.325 63.7485 142.991 63.2845 143.132 62.518L143.445 60.7429C143.586 59.966 143.072 59.5019 142.123 59.5019ZM142.214 58.8866C143.606 58.8866 144.322 59.6229 144.122 60.7732L143.808 62.5482C143.606 63.6976 142.678 64.3639 141.286 64.3639C139.914 64.3639 139.178 63.6483 139.38 62.4981L139.692 60.7222C139.894 59.5728 140.843 58.8866 142.214 58.8866Z" fill="#C51618"/>
<path d="M150.227 59.2192L149.672 62.377C149.522 63.2844 149.875 63.7485 150.843 63.7485C151.548 63.7485 151.952 63.5877 152.385 63.4961L153.142 59.2192C153.163 59.0784 153.223 59.0377 153.354 59.0377H153.666C153.798 59.0377 153.849 59.0784 153.819 59.2192L153.072 63.4667C153.637 63.4062 153.899 63.6785 153.778 64.3534L153.596 65.4429C153.566 65.5848 153.526 65.6243 153.395 65.6243H153.102C152.961 65.6243 152.91 65.5848 152.942 65.4429L153.123 64.4347C153.163 64.1823 153.072 63.981 152.709 64.0414C152.164 64.1417 151.61 64.3637 150.661 64.3637C149.279 64.3637 148.784 63.5877 149.007 62.3467L149.552 59.2192C149.582 59.0784 149.632 59.0377 149.773 59.0377H150.086C150.217 59.0377 150.257 59.0784 150.227 59.2192Z" fill="#C51618"/>
<path d="M163.649 59.2191L162.902 63.4762C162.841 63.789 162.751 63.8997 162.418 64.031C162.005 64.1926 161.399 64.3638 160.481 64.3638C159.099 64.3638 158.615 63.5877 158.837 62.3467L159.382 59.2191C159.412 59.0783 159.462 59.0377 159.603 59.0377H159.916C160.047 59.0377 160.087 59.0783 160.058 59.2191L159.503 62.3675C159.351 63.274 159.695 63.7484 160.673 63.7484C161.248 63.7484 161.702 63.6482 162.034 63.5263C162.195 63.4563 162.246 63.376 162.266 63.2446L162.973 59.2191C162.993 59.0783 163.053 59.0377 163.185 59.0377H163.497C163.629 59.0377 163.679 59.0783 163.649 59.2191Z" fill="#C51618"/>
<path d="M170.976 59.512C169.927 59.512 169.382 59.8949 169.2 60.8939L168.949 62.2965C168.787 63.184 169.141 63.7483 170.088 63.7483C170.775 63.7483 171.339 63.6075 171.643 63.5064L172.267 59.9761C172.288 59.8145 172.267 59.7747 172.107 59.7039C171.844 59.6019 171.481 59.512 170.976 59.512ZM171.037 58.8864C171.793 58.8864 172.369 59.0376 172.691 59.1888C172.994 59.3305 173.044 59.4109 172.984 59.7445L172.267 63.8295C172.237 63.9704 172.167 64.0214 172.015 64.0715C171.511 64.2124 170.845 64.3636 169.937 64.3636C168.555 64.3636 168.061 63.4865 168.283 62.2454L168.535 60.8031C168.766 59.461 169.564 58.8864 171.037 58.8864Z" fill="#C51618"/>
<path d="M182.5 59.2192L181.663 64.0414C181.633 64.1823 181.573 64.2229 181.441 64.2229H181.129C180.987 64.2229 180.957 64.1823 180.977 64.0414L181.744 59.6729H179.636L179.242 61.3374C178.636 63.8997 178.052 64.0215 177.265 64.3534C177.153 64.394 177.093 64.3637 177.062 64.2635L176.963 63.9507C176.932 63.8496 176.952 63.8098 177.053 63.7588C177.477 63.5574 178.052 63.5575 178.586 61.2777L179.07 59.2192C179.111 59.0783 179.162 59.0377 179.292 59.0377H182.359C182.49 59.0377 182.53 59.0783 182.5 59.2192Z" fill="#C51618"/>
<path d="M189.121 63.7587C190.1 63.7587 190.644 63.3353 190.806 62.4469C190.947 61.6198 190.534 61.1765 189.625 61.1765C189.071 61.1765 188.586 61.2975 188.132 61.4591L187.8 63.2946C187.78 63.4563 187.79 63.4865 187.951 63.5669C188.224 63.6689 188.597 63.7587 189.121 63.7587ZM189.767 60.5915C191.059 60.5915 191.684 61.2975 191.472 62.4979C191.25 63.7691 190.452 64.3637 189.102 64.3637C188.283 64.3637 187.749 64.2332 187.386 64.0819C187.084 63.9506 187.023 63.84 187.084 63.5168L187.85 59.2191C187.88 59.0782 187.931 59.0376 188.072 59.0376H188.365C188.505 59.0376 188.546 59.0782 188.516 59.2191L188.234 60.8637C188.717 60.702 189.211 60.5915 189.767 60.5915Z" fill="#C51618"/>
<path d="M201.311 59.2191L200.474 64.0414C200.443 64.1823 200.393 64.2228 200.251 64.2228H199.939C199.797 64.2228 199.768 64.1823 199.788 64.0414L200.171 61.8723H197.246L196.872 64.0414C196.842 64.1823 196.792 64.2228 196.65 64.2228H196.338C196.207 64.2228 196.166 64.1823 196.186 64.0414L197.034 59.2191C197.064 59.0783 197.115 59.0377 197.256 59.0377H197.569C197.699 59.0377 197.74 59.0783 197.71 59.2191L197.357 61.2475H200.282L200.636 59.2191C200.665 59.0783 200.716 59.0377 200.858 59.0377H201.17C201.301 59.0377 201.341 59.0783 201.311 59.2191Z" fill="#C51618"/>
<path d="M212.341 59.2191L211.494 64.0414C211.463 64.1823 211.413 64.2228 211.281 64.2228H210.959C210.828 64.2228 210.787 64.1823 210.817 64.0414L211.665 59.2191C211.685 59.0783 211.747 59.0377 211.877 59.0377H212.19C212.331 59.0377 212.372 59.0783 212.341 59.2191ZM207.932 63.7588C208.911 63.7588 209.456 63.3353 209.618 62.4469C209.759 61.6199 209.345 61.1765 208.437 61.1765C207.883 61.1765 207.398 61.2976 206.944 61.4591L206.611 63.2947C206.591 63.4563 206.601 63.4857 206.762 63.5669C207.035 63.668 207.408 63.7588 207.932 63.7588ZM208.579 60.5915C209.87 60.5915 210.495 61.2976 210.283 62.4979C210.062 63.7691 209.264 64.3638 207.913 64.3638C207.096 64.3638 206.562 64.2332 206.199 64.082C205.895 63.9506 205.834 63.84 205.895 63.5168L206.661 59.2191C206.692 59.0783 206.742 59.0377 206.884 59.0377H207.176C207.317 59.0377 207.357 59.0783 207.327 59.2191L207.045 60.8637C207.529 60.7021 208.024 60.5915 208.579 60.5915Z" fill="#C51618"/>
<path d="M221.636 59.2394L219.488 61.5598L220.9 64.021C220.97 64.1524 220.92 64.2233 220.728 64.2233H220.475C220.285 64.2233 220.254 64.2025 220.184 64.072L219.023 62.0437L217.178 64.072C217.066 64.2025 217.006 64.2233 216.824 64.2233H216.492C216.29 64.2233 216.28 64.1524 216.4 64.021L218.661 61.5598L217.319 59.2394C217.268 59.1185 217.298 59.0381 217.5 59.0381H217.742C217.934 59.0381 217.975 59.0579 218.035 59.1885L219.134 61.0655L220.869 59.1885C220.991 59.0579 221.021 59.0381 221.213 59.0381H221.555C221.737 59.0381 221.758 59.1089 221.636 59.2394Z" fill="#C51618"/>
<path d="M235.069 59.512C234.02 59.512 233.475 59.8949 233.293 60.8939L233.041 62.2965C232.88 63.184 233.234 63.7483 234.182 63.7483C234.868 63.7483 235.432 63.6075 235.735 63.5064L236.36 59.9761C236.381 59.8145 236.36 59.7747 236.199 59.7039C235.937 59.6019 235.574 59.512 235.069 59.512ZM235.13 58.8864C235.886 58.8864 236.461 59.0376 236.784 59.1888C237.087 59.3305 237.137 59.4109 237.077 59.7445L236.36 63.8295C236.33 63.9704 236.26 64.0214 236.108 64.0715C235.604 64.2124 234.939 64.3636 234.031 64.3636C232.648 64.3636 232.154 63.4865 232.377 62.2454L232.628 60.8031C232.86 59.461 233.657 58.8864 235.13 58.8864Z" fill="#C51618"/>
<path d="M244.778 58.8867C246.16 58.8867 246.654 59.6731 246.432 60.9141L245.887 64.0416C245.857 64.1825 245.797 64.2231 245.666 64.2231H245.353C245.212 64.2231 245.181 64.1825 245.202 64.0416L245.756 60.8847C245.917 59.9764 245.565 59.5123 244.586 59.5123C244.01 59.5123 243.536 59.623 243.214 59.7336C243.063 59.7949 243.032 59.8753 243.002 59.9859L242.296 64.0416C242.265 64.1825 242.216 64.2231 242.084 64.2231H241.762C241.63 64.2231 241.59 64.1825 241.62 64.0416L242.367 59.7845C242.427 59.4717 242.518 59.3611 242.851 59.2289C243.265 59.0681 243.87 58.8867 244.778 58.8867Z" fill="#C51618"/>
<path d="M257.2 58.8867C258.481 58.8867 258.925 59.6126 258.702 60.8536L258.149 64.0416C258.118 64.1825 258.067 64.2231 257.927 64.2231H257.614C257.472 64.2231 257.442 64.1825 257.463 64.0416L258.037 60.8337C258.189 59.9358 257.875 59.5123 257.008 59.5123C256.332 59.5123 255.798 59.7543 255.576 59.8545C255.667 60.1069 255.676 60.4197 255.606 60.8034L255.041 64.0416C255.012 64.1825 254.961 64.2231 254.819 64.2231H254.507C254.366 64.2231 254.336 64.1825 254.366 64.0416L254.93 60.8337C255.092 59.9055 254.729 59.5123 253.871 59.5123C253.428 59.5123 253.104 59.5832 252.782 59.7137C252.62 59.7845 252.59 59.8753 252.56 59.9859L251.853 64.0416C251.823 64.1825 251.774 64.2231 251.642 64.2231H251.319C251.188 64.2231 251.147 64.1825 251.177 64.0416L251.925 59.7845C251.985 59.4717 252.086 59.3404 252.409 59.209C252.791 59.0482 253.316 58.8867 254.063 58.8867C254.648 58.8867 255.061 59.0379 255.304 59.3308C255.536 59.2289 256.221 58.8867 257.2 58.8867Z" fill="#C51618"/>
<path d="M266.325 59.4716C265.346 59.4716 264.671 60.0264 264.498 60.9545L264.418 61.3477C264.962 61.4695 265.538 61.5197 266.021 61.5197C266.919 61.5197 267.485 61.2172 267.637 60.6019C267.818 59.8647 267.313 59.4716 266.325 59.4716ZM266.426 58.8865C267.787 58.8865 268.544 59.5727 268.291 60.6814C268.09 61.6199 267.263 62.0538 265.921 62.0538C265.426 62.0538 264.822 61.9932 264.326 61.893L264.236 62.3968C264.085 63.274 264.508 63.7787 265.508 63.7787C266.335 63.7787 266.849 63.4667 267.222 62.9819C267.333 62.8609 267.404 62.8306 267.525 62.911L267.717 63.0329C267.827 63.1029 267.827 63.1945 267.726 63.325C267.263 63.9403 266.566 64.3638 265.407 64.3638C263.894 64.3638 263.369 63.4762 263.591 62.256L263.833 60.9441C264.065 59.6331 265.003 58.8865 266.426 58.8865Z" fill="#C51618"/>
<path d="M276.941 64.2229H276.648C276.446 64.2229 276.416 64.1926 276.376 64.0613L275.881 62.4876C275.75 62.0641 275.518 61.8723 275.004 61.8723H273.843L273.47 64.0311C273.44 64.1823 273.39 64.2229 273.239 64.2229H272.946C272.795 64.2229 272.764 64.1823 272.784 64.0311L273.632 59.2192C273.662 59.0784 273.713 59.0377 273.863 59.0377H274.156C274.297 59.0377 274.338 59.0784 274.307 59.2192L273.955 61.2475H275.024H275.124L277.112 59.1786C277.244 59.0377 277.293 59.0377 277.496 59.0377H277.778C277.969 59.0377 277.969 59.1388 277.828 59.2702L275.75 61.4186C276.144 61.5093 276.346 61.7608 276.497 62.1947L277.092 64.0112C277.142 64.1624 277.112 64.2229 276.941 64.2229Z" fill="#C51618"/>
</g>
<defs>
<clipPath id="clip0_8_327">
<rect width="318.889" height="70" fill="white"/>
</clipPath>
</defs>
</svg>
