<svg width="210" height="114" viewBox="0 0 211 114" fill="none" xmlns="http://www.w3.org/2000/svg">
<path d="M135.833 24.1609C134.598 30.3589 133.056 36.304 131.217 41.9576C129.38 47.6113 127.248 52.9727 124.834 58.0033C124.685 58.3142 124.463 58.5772 124.192 58.7738C123.921 58.9705 123.603 59.102 123.261 59.1499C120.306 59.5582 117.339 59.865 114.368 60.0704C111.397 60.2751 108.421 60.3772 105.444 60.3772C99.4909 60.3772 93.5382 59.9671 87.6269 59.1499C87.2855 59.102 86.9671 58.9705 86.6972 58.7738C86.4265 58.5772 86.2043 58.3142 86.0559 58.0033C83.6397 52.9727 81.5081 47.6113 79.671 41.9576C77.8323 36.304 76.2905 30.3589 75.0555 24.1609C75.0293 24.0271 75.0155 23.8918 75.0155 23.7572C75.0155 23.2066 75.2385 22.6698 75.6438 22.2799C79.8494 18.2258 84.3756 14.4385 89.191 10.9397C94.0057 7.44075 99.1087 4.23175 104.467 1.3365C104.771 1.17117 105.108 1.08889 105.444 1.08889C105.78 1.08889 106.116 1.17117 106.42 1.3365C111.78 4.23175 116.882 7.44075 121.698 10.9397C126.512 14.4385 131.039 18.2258 135.244 22.2799C135.65 22.6714 135.873 23.2073 135.873 23.7603C135.873 23.8941 135.86 24.0279 135.833 24.1609ZM136.001 21.4956C131.785 17.4307 127.188 13.5827 122.338 10.0584C117.491 6.53716 112.31 3.27974 106.942 0.379881C106.484 0.130733 105.966 0 105.444 0C104.922 0 104.405 0.130727 103.949 0.378341C98.5789 3.27974 93.3975 6.53716 88.5505 10.0584C83.6981 13.5842 79.1027 17.4322 74.8909 21.4941C74.2773 22.0823 73.9258 22.9082 73.9258 23.7587C73.9258 23.961 73.9458 24.1663 73.9866 24.3747C75.2239 30.5812 76.788 36.6108 78.6351 42.2952C80.483 47.9827 82.65 53.4263 85.0731 58.4745C85.2969 58.9417 85.6368 59.3489 86.0544 59.6545C86.4727 59.9596 86.9648 60.1586 87.4778 60.2301C93.4159 61.0514 99.4602 61.4678 105.444 61.4678C111.427 61.4678 117.472 61.0514 123.413 60.2295C123.927 60.158 124.418 59.959 124.833 59.6551C125.25 59.3512 125.59 58.9446 125.816 58.4757C128.245 53.4141 130.411 47.9696 132.256 42.2952C134.104 36.6062 135.668 30.5774 136.903 24.37C136.942 24.1663 136.963 23.961 136.963 23.7587C136.963 22.9097 136.612 22.0838 136.001 21.4956Z" fill="#C90C0F"/>
<path d="M117.686 35.0709C117.686 36.206 116.766 37.1264 115.63 37.1264H109.525V43.2314C109.525 44.3665 108.604 45.287 107.47 45.287H103.419C102.284 45.287 101.364 44.3665 101.364 43.2314V37.1264H95.2579C94.1229 37.1264 93.2032 36.206 93.2032 35.0709V31.0206C93.2032 29.8856 94.1229 28.9659 95.2579 28.9659H101.364V22.8601C101.364 21.7251 102.284 20.8046 103.419 20.8046H107.47C108.604 20.8046 109.525 21.7251 109.525 22.8601V28.9659H115.63C116.766 28.9659 117.686 29.8856 117.686 31.0206V35.0709ZM106.444 6.04308C105.824 5.69397 105.065 5.69397 104.444 6.04308C95.5332 11.0515 87.3858 16.9643 80.1696 23.6584C79.6374 24.1513 79.3975 24.8857 79.5482 25.5955C81.7629 35.9553 84.8689 45.5484 88.8015 54.1711C89.0991 54.824 89.7096 55.2808 90.421 55.3669C100.4 56.5665 110.487 56.5665 120.468 55.3669C121.18 55.2808 121.79 54.824 122.087 54.1711C126.021 45.5484 129.126 35.9553 131.339 25.5955C131.491 24.8857 131.251 24.1513 130.719 23.6584C123.503 16.9643 115.354 11.0515 106.444 6.04308Z" fill="#C51618"/>
<g clip-path="url(#clip0_300_21068)">
<path d="M8.57104 90.7779L12.4202 81.0064C12.6423 80.4934 13.0223 80.2366 13.5576 80.2366C14.0934 80.2366 14.4607 80.4934 14.6614 81.0064L18.3428 90.7779H8.57104ZM16.5359 76.84C15.7549 76.4047 14.7733 76.1871 13.5904 76.1871C12.3862 76.1871 11.3873 76.4047 10.596 76.84C9.80412 77.2745 9.21815 78.0281 8.83865 79.0985L0.907288 99.1776H5.25766L7.09862 94.526H19.7483L21.5218 99.1776H25.9056L18.2759 79.0985C17.897 78.0281 17.3162 77.2745 16.5359 76.84Z" fill="#C90C0F"/>
<path d="M46.8213 76.5888H31.1269C29.8766 76.5888 29.252 77.2025 29.252 78.4298V99.1779H33.2015V80.9398C33.2015 80.6721 33.3462 80.5375 33.6358 80.5375H44.3447C44.6123 80.5375 44.7461 80.6721 44.7461 80.9398V99.1779H48.728V78.4298C48.728 77.2025 48.093 76.5888 46.8213 76.5888Z" fill="#C90C0F"/>
<path d="M52.4098 80.5377H59.002V99.1772H62.9849V80.5377H69.5771V76.5889H52.4098V80.5377Z" fill="#C90C0F"/>
<path d="M77.3413 94.4756C76.783 93.9742 76.5044 93.2767 76.5044 92.3839V89.6402H79.9516H91.1623V86.0598H80.052H76.6088L76.6054 83.3821C76.6054 82.5124 76.873 81.8211 77.4082 81.3074C77.9434 80.7945 78.8137 80.5377 80.018 80.5377H91.329V76.5889H80.018C78.6793 76.5889 77.5362 76.7396 76.5881 77.041C75.6393 77.3417 74.859 77.7662 74.2459 78.3122C73.6322 78.8589 73.1801 79.5118 72.89 80.27C72.6005 81.029 72.4551 81.8542 72.4551 82.7462C72.4551 85.2677 72.3888 91.7265 72.3888 93.0199C72.3888 93.8904 72.5272 94.7048 72.8069 95.463C73.0855 96.222 73.5313 96.8741 74.145 97.4208C74.7586 97.9676 75.5395 98.3975 76.4883 98.7089C77.4359 99.0218 78.579 99.1772 79.9182 99.1772H91.3631V95.2284H79.9182C78.7578 95.2284 77.8984 94.9777 77.3413 94.4756Z" fill="#C90C0F"/>
<path d="M112.145 90.393C111.832 89.9131 111.502 89.5009 111.157 89.1549C110.811 88.8088 110.438 88.519 110.036 88.2844C109.634 88.0506 109.167 87.8668 108.631 87.733C109.567 87.3309 110.326 86.7957 110.907 86.1266C111.486 85.4568 112.032 84.6202 112.545 83.6166L116.093 76.5888H111.843L108.397 83.349C108.083 83.9734 107.788 84.4694 107.51 84.8378C107.23 85.2061 106.89 85.4907 106.489 85.6914C106.087 85.8921 105.58 86.0205 104.966 86.0759C104.352 86.132 103.566 86.1597 102.607 86.1597H100.432V76.5888H96.4828V99.1772H100.432V89.7401H102.607C103.677 89.7401 104.548 89.7685 105.217 89.8239C105.886 89.8801 106.444 90.0085 106.89 90.2092C107.336 90.4099 107.704 90.689 107.995 91.0458C108.284 91.4027 108.586 91.8825 108.898 92.4846L112.346 99.1772H116.762L113.115 92.0832C112.78 91.4357 112.456 90.8736 112.145 90.393Z" fill="#C90C0F"/>
<path d="M126.4 90.7779L130.248 81.0064C130.471 80.4934 130.85 80.2366 131.386 80.2366C131.922 80.2366 132.289 80.4934 132.49 81.0064L136.171 90.7779H126.4ZM134.364 76.84C133.583 76.4047 132.601 76.1871 131.42 76.1871C130.215 76.1871 129.216 76.4047 128.425 76.84C127.632 77.2745 127.046 78.0281 126.668 79.0985L118.736 99.1776H123.086L124.927 94.526H137.577L139.351 99.1776H143.734L136.104 79.0985C135.725 78.0281 135.145 77.2745 134.364 76.84Z" fill="#C90C0F"/>
<path d="M160.801 77.8106C160.4 77.3753 159.858 77.0631 159.179 76.8731C158.497 76.684 157.645 76.5886 156.619 76.5886H154.242V80.5374H156.283C156.886 80.5374 157.309 80.672 157.555 80.9396C157.8 81.2072 157.924 81.6416 157.924 82.2446V99.1777H161.872V81.9761C161.872 80.9957 161.794 80.1644 161.638 79.4839C161.482 78.8033 161.203 78.245 160.801 77.8106Z" fill="#C90C0F"/>
<path d="M181.449 90.9788H171.577C171.042 90.9788 170.657 90.8842 170.422 90.6943C170.187 90.5051 170.071 90.2314 170.071 89.8745C170.071 89.4954 170.205 89.1501 170.473 88.8372L176.63 81.5087C176.942 81.1288 177.233 80.872 177.5 80.7389C177.768 80.6044 178.158 80.5375 178.671 80.5375H180.445C181.114 80.5375 181.449 80.9058 181.449 81.6418V90.9788ZM181.348 76.5887H178.838C178.169 76.5887 177.584 76.6449 177.081 76.7563C176.58 76.8678 176.127 77.0293 175.726 77.2416C175.325 77.4538 174.957 77.7153 174.622 78.0282C174.288 78.3405 173.94 78.7088 173.585 79.1325L167.059 86.9293C166.634 87.443 166.295 87.9667 166.039 88.5027C165.782 89.0379 165.653 89.7292 165.653 90.5774C165.653 91.8485 166.044 92.8198 166.825 93.4888C167.605 94.1578 168.955 94.4923 170.874 94.4923H181.449V99.1778H185.431V80.7051C185.431 79.3663 185.118 78.3458 184.494 77.643C183.869 76.9402 182.821 76.5887 181.348 76.5887Z" fill="#C90C0F"/>
<path d="M196.909 86.7287C195.883 86.7287 195.097 86.4942 194.55 86.0259C194.003 85.5576 193.73 84.8216 193.73 83.8173C193.73 82.8361 194.003 82.044 194.55 81.4411C195.097 80.839 195.939 80.5376 197.077 80.5376H200.223C202.118 80.5376 203.54 81.029 204.488 82.0102C205.438 82.9922 205.966 84.5656 206.079 86.7287H196.909ZM209.408 82.5462C208.973 81.1628 208.365 80.0308 207.585 79.1488C206.803 78.2683 205.867 77.6208 204.774 77.2078C203.68 76.7957 202.475 76.5888 201.159 76.5888H197.378C195.995 76.5888 194.829 76.7726 193.881 77.1409C192.932 77.5093 192.162 78.0168 191.572 78.6635C190.98 79.311 190.551 80.0754 190.284 80.9559C190.015 81.8379 189.882 82.78 189.882 83.7835C189.882 85.8813 190.411 87.4262 191.472 88.419C192.531 89.4117 194.21 89.9077 196.508 89.9077H205.979C205.71 91.8048 205.074 93.1659 204.071 93.9903C203.067 94.8162 201.662 95.2291 199.855 95.2291H192.425V99.1771H199.855C203.134 99.1771 205.655 98.2243 207.418 96.3165C209.179 94.4086 210.061 91.4811 210.061 87.5315C210.061 85.5914 209.843 83.9288 209.408 82.5462Z" fill="#C90C0F"/>
<path d="M3.62776 106.748C4.72242 106.748 5.18093 107.26 5.28763 107.969C5.30609 108.104 5.2784 108.166 5.15325 108.202L4.93812 108.266C4.80316 108.319 4.75875 108.283 4.73165 108.157C4.64168 107.6 4.31812 107.287 3.54702 107.287C2.65768 107.287 2.12881 107.754 1.99327 108.508L1.7522 109.872C1.61666 110.626 1.99328 111.092 2.87396 111.092C3.61854 111.092 4.08512 110.779 4.38099 110.168C4.44443 110.043 4.49806 110.025 4.62437 110.06L4.85738 110.141C4.96465 110.186 4.99176 110.24 4.92024 110.366C4.49806 111.192 3.85212 111.622 2.78342 111.622C1.49959 111.622 0.961481 110.913 1.1593 109.809L1.39231 108.481C1.58956 107.385 2.30817 106.748 3.62776 106.748Z" fill="#C51618"/>
<path d="M11.7726 107.269C10.9023 107.269 10.3008 107.762 10.1479 108.588L10.0764 108.938C10.5609 109.047 11.073 109.091 11.5027 109.091C12.3015 109.091 12.8056 108.822 12.9399 108.275C13.1014 107.619 12.6521 107.269 11.7726 107.269ZM11.8626 106.748C13.0737 106.748 13.7474 107.359 13.523 108.345C13.3437 109.18 12.6077 109.567 11.4133 109.567C10.9738 109.567 10.4351 109.513 9.99451 109.424L9.91492 109.872C9.77939 110.652 10.156 111.101 11.0459 111.101C11.7818 111.101 12.2392 110.824 12.5714 110.392C12.67 110.285 12.7329 110.258 12.8407 110.329L13.0115 110.438C13.1101 110.5 13.1101 110.582 13.0201 110.698C12.6077 111.245 11.9877 111.622 10.9559 111.622C9.60925 111.622 9.14266 110.832 9.34048 109.746L9.55561 108.579C9.76151 107.413 10.5966 106.748 11.8626 106.748Z" fill="#C51618"/>
<path d="M22.8616 106.748C24.0013 106.748 24.3964 107.394 24.1985 108.499L23.706 111.335C23.6783 111.461 23.6333 111.497 23.5082 111.497H23.2296C23.1039 111.497 23.0768 111.461 23.0952 111.335L23.6068 108.481C23.7417 107.682 23.4626 107.305 22.6909 107.305C22.0894 107.305 21.6141 107.52 21.4163 107.61C21.4971 107.834 21.5057 108.113 21.4434 108.454L20.9405 111.335C20.9146 111.461 20.869 111.497 20.7427 111.497H20.4653C20.3401 111.497 20.313 111.461 20.3401 111.335L20.8419 108.481C20.9861 107.655 20.6631 107.305 19.8995 107.305C19.505 107.305 19.2172 107.368 18.9306 107.484C18.7864 107.547 18.7598 107.628 18.7327 107.727L18.1035 111.335C18.077 111.461 18.0332 111.497 17.9155 111.497H17.6283C17.5118 111.497 17.4754 111.461 17.5025 111.335L18.1675 107.547C18.2212 107.269 18.3106 107.152 18.5984 107.035C18.9386 106.892 19.4058 106.748 20.0702 106.748C20.5904 106.748 20.9584 106.883 21.1741 107.144C21.3806 107.053 21.9908 106.748 22.8616 106.748Z" fill="#C51618"/>
<path d="M30.3073 111.084C31.1788 111.084 31.6632 110.707 31.8069 109.916C31.932 109.18 31.5646 108.786 30.7566 108.786C30.2629 108.786 29.8321 108.894 29.4278 109.037L29.1325 110.671C29.114 110.815 29.1233 110.841 29.2663 110.913C29.5091 111.004 29.8413 111.084 30.3073 111.084ZM30.8823 108.265C32.0312 108.265 32.5883 108.894 32.3997 109.962C32.2019 111.093 31.4925 111.622 30.2906 111.622C29.5622 111.622 29.0869 111.506 28.764 111.371C28.4946 111.254 28.4404 111.156 28.4946 110.868L29.1763 107.044C29.2029 106.919 29.2484 106.883 29.3736 106.883H29.6343C29.76 106.883 29.7958 106.919 29.7692 107.044L29.5183 108.508C29.948 108.364 30.3881 108.265 30.8823 108.265Z" fill="#C51618"/>
<path d="M44.9093 106.748C46.0039 106.748 46.4624 107.26 46.5691 107.969C46.5876 108.104 46.5599 108.166 46.4347 108.202L46.2196 108.266C46.0847 108.319 46.0402 108.283 46.0131 108.157C45.9226 107.6 45.5996 107.287 44.8285 107.287C43.9392 107.287 43.4103 107.754 43.2748 108.508L43.0337 109.872C42.8982 110.626 43.2748 111.092 44.1555 111.092C44.9 111.092 45.3666 110.779 45.6625 110.168C45.7259 110.043 45.7796 110.025 45.9059 110.06L46.1389 110.141C46.2461 110.186 46.2733 110.24 46.2017 110.366C45.7796 111.192 45.1336 111.622 44.0649 111.622C42.7811 111.622 42.243 110.913 42.4408 109.809L42.6738 108.481C42.8711 107.385 43.5897 106.748 44.9093 106.748Z" fill="#C51618"/>
<path d="M53.0541 107.296C52.2189 107.296 51.6174 107.709 51.4922 108.4L51.2137 109.98C51.088 110.662 51.5551 111.075 52.381 111.075C53.2334 111.075 53.8263 110.662 53.9515 109.98L54.23 108.4C54.3552 107.709 53.8984 107.296 53.0541 107.296ZM53.1348 106.748C54.3736 106.748 55.0109 107.403 54.8322 108.427L54.553 110.006C54.3736 111.029 53.5477 111.622 52.3089 111.622C51.0879 111.622 50.4333 110.985 50.6127 109.962L50.8907 108.382C51.0701 107.359 51.9144 106.748 53.1348 106.748Z" fill="#C51618"/>
<path d="M60.2651 107.044L59.7714 109.854C59.6376 110.662 59.9513 111.075 60.813 111.075C61.4405 111.075 61.7998 110.932 62.1856 110.85L62.8593 107.044C62.8771 106.919 62.9308 106.883 63.0479 106.883H63.3253C63.4429 106.883 63.4879 106.919 63.4608 107.044L62.7964 110.824C63.2993 110.77 63.5323 111.012 63.4245 111.613L63.263 112.582C63.2365 112.709 63.2001 112.744 63.0842 112.744H62.8235C62.6978 112.744 62.6528 112.709 62.6805 112.582L62.842 111.685C62.8771 111.461 62.7964 111.281 62.4734 111.335C61.9884 111.424 61.4953 111.622 60.6509 111.622C59.4213 111.622 58.9812 110.932 59.1791 109.827L59.6641 107.044C59.6906 106.919 59.7356 106.883 59.8614 106.883H60.1393C60.2559 106.883 60.2916 106.919 60.2651 107.044Z" fill="#C51618"/>
<path d="M72.2083 107.044L71.5439 110.832C71.4891 111.111 71.4095 111.209 71.1125 111.326C70.7451 111.47 70.2059 111.622 69.3892 111.622C68.1596 111.622 67.7288 110.931 67.9266 109.827L68.4116 107.044C68.4382 106.919 68.4826 106.883 68.6077 106.883H68.8869C69.0034 106.883 69.0391 106.919 69.0126 107.044L68.5189 109.846C68.384 110.652 68.6896 111.075 69.5605 111.075C70.0721 111.075 70.4758 110.985 70.7717 110.877C70.9147 110.815 70.9603 110.743 70.9781 110.626L71.6068 107.044C71.6247 106.919 71.6783 106.883 71.7954 106.883H72.0728C72.1905 106.883 72.2354 106.919 72.2083 107.044Z" fill="#C51618"/>
<path d="M78.7284 107.305C77.7947 107.305 77.3096 107.645 77.1482 108.534L76.9244 109.782C76.7802 110.572 77.0951 111.074 77.9383 111.074C78.5491 111.074 79.0514 110.949 79.3213 110.859L79.8773 107.718C79.8958 107.574 79.8773 107.539 79.7343 107.475C79.5001 107.385 79.1771 107.305 78.7284 107.305ZM78.7821 106.748C79.4551 106.748 79.9673 106.883 80.2539 107.017C80.5238 107.143 80.5682 107.215 80.5146 107.512L79.8773 111.147C79.8502 111.272 79.7879 111.317 79.6524 111.362C79.2042 111.487 78.6119 111.622 77.8039 111.622C76.5737 111.622 76.1342 110.841 76.3321 109.737L76.5558 108.454C76.7617 107.259 77.4717 106.748 78.7821 106.748Z" fill="#C51618"/>
<path d="M88.9829 107.044L88.2377 111.335C88.2106 111.461 88.1575 111.497 88.0399 111.497H87.7625C87.6362 111.497 87.6091 111.461 87.6269 111.335L88.3098 107.448H86.4342L86.083 108.929C85.5443 111.209 85.0247 111.318 84.3239 111.613C84.2247 111.649 84.1711 111.622 84.144 111.533L84.0552 111.255C84.0281 111.165 84.0459 111.129 84.1359 111.084C84.5131 110.905 85.0247 110.905 85.4999 108.876L85.9307 107.044C85.9665 106.919 86.0121 106.883 86.128 106.883H88.8571C88.9736 106.883 89.0094 106.919 88.9829 107.044Z" fill="#C51618"/>
<path d="M94.8737 111.084C95.7452 111.084 96.2296 110.707 96.3732 109.916C96.4989 109.18 96.131 108.786 95.323 108.786C94.8293 108.786 94.3984 108.894 93.9942 109.037L93.6989 110.671C93.6804 110.815 93.6896 110.841 93.8327 110.913C94.0755 111.004 94.4077 111.084 94.8737 111.084ZM95.4493 108.265C96.5981 108.265 97.1547 108.894 96.9661 109.962C96.7689 111.093 96.0589 111.622 94.857 111.622C94.1285 111.622 93.6533 111.506 93.3303 111.371C93.0616 111.254 93.0068 111.156 93.0616 110.868L93.7427 107.044C93.7698 106.919 93.8148 106.883 93.9405 106.883H94.2012C94.3264 106.883 94.3627 106.919 94.3356 107.044L94.0847 108.508C94.515 108.364 94.9544 108.265 95.4493 108.265Z" fill="#C51618"/>
<path d="M105.721 107.044L104.976 111.335C104.949 111.461 104.904 111.497 104.778 111.497H104.501C104.374 111.497 104.348 111.461 104.366 111.335L104.707 109.405H102.104L101.772 111.335C101.744 111.461 101.7 111.497 101.574 111.497H101.296C101.179 111.497 101.143 111.461 101.161 111.335L101.915 107.044C101.942 106.919 101.987 106.883 102.113 106.883H102.391C102.507 106.883 102.543 106.919 102.517 107.044L102.203 108.849H104.806L105.12 107.044C105.147 106.919 105.192 106.883 105.318 106.883H105.595C105.712 106.883 105.748 106.919 105.721 107.044Z" fill="#C51618"/>
<path d="M115.536 107.044L114.782 111.335C114.755 111.461 114.71 111.497 114.593 111.497H114.306C114.189 111.497 114.154 111.461 114.18 111.335L114.935 107.044C114.952 106.919 115.007 106.883 115.123 106.883H115.402C115.527 106.883 115.563 106.919 115.536 107.044ZM111.612 111.084C112.484 111.084 112.968 110.707 113.113 109.916C113.238 109.18 112.87 108.786 112.062 108.786C111.569 108.786 111.137 108.894 110.734 109.037L110.438 110.671C110.42 110.815 110.428 110.841 110.572 110.913C110.814 111.003 111.146 111.084 111.612 111.084ZM112.188 108.265C113.338 108.265 113.894 108.894 113.705 109.962C113.508 111.093 112.798 111.622 111.596 111.622C110.868 111.622 110.393 111.506 110.07 111.371C109.8 111.254 109.746 111.156 109.8 110.868L110.482 107.044C110.509 106.919 110.554 106.883 110.68 106.883H110.94C111.066 106.883 111.102 106.919 111.074 107.044L110.824 108.508C111.254 108.364 111.694 108.265 112.188 108.265Z" fill="#C51618"/>
<path d="M123.807 107.062L121.895 109.127L123.152 111.317C123.214 111.434 123.17 111.497 122.999 111.497H122.774C122.605 111.497 122.577 111.479 122.515 111.362L121.482 109.558L119.84 111.362C119.741 111.479 119.687 111.497 119.525 111.497H119.23C119.05 111.497 119.041 111.434 119.148 111.317L121.159 109.127L119.965 107.062C119.92 106.955 119.947 106.883 120.127 106.883H120.342C120.513 106.883 120.549 106.901 120.603 107.017L121.581 108.687L123.125 107.017C123.233 106.901 123.26 106.883 123.431 106.883H123.735C123.897 106.883 123.916 106.946 123.807 107.062Z" fill="#C51618"/>
<path d="M135.76 107.305C134.827 107.305 134.341 107.645 134.18 108.534L133.956 109.782C133.813 110.572 134.127 111.074 134.971 111.074C135.581 111.074 136.083 110.949 136.353 110.859L136.909 107.718C136.928 107.574 136.909 107.539 136.766 107.475C136.532 107.385 136.209 107.305 135.76 107.305ZM135.814 106.748C136.487 106.748 136.999 106.883 137.286 107.017C137.556 107.143 137.601 107.215 137.547 107.512L136.909 111.147C136.883 111.272 136.82 111.317 136.685 111.362C136.237 111.487 135.644 111.622 134.836 111.622C133.605 111.622 133.167 110.841 133.364 109.737L133.588 108.454C133.794 107.259 134.504 106.748 135.814 106.748Z" fill="#C51618"/>
<path d="M144.399 106.748C145.629 106.748 146.069 107.448 145.871 108.552L145.387 111.335C145.36 111.461 145.306 111.497 145.189 111.497H144.911C144.786 111.497 144.758 111.461 144.776 111.335L145.27 108.526C145.413 107.718 145.099 107.305 144.228 107.305C143.716 107.305 143.294 107.404 143.007 107.502C142.874 107.557 142.846 107.628 142.819 107.727L142.191 111.335C142.164 111.461 142.119 111.497 142.002 111.497H141.716C141.598 111.497 141.563 111.461 141.589 111.335L142.254 107.547C142.308 107.269 142.389 107.171 142.685 107.053C143.053 106.91 143.591 106.748 144.399 106.748Z" fill="#C51618"/>
<path d="M155.453 106.748C156.593 106.748 156.988 107.394 156.79 108.499L156.297 111.335C156.27 111.461 156.225 111.497 156.1 111.497H155.821C155.695 111.497 155.668 111.461 155.687 111.335L156.198 108.481C156.333 107.682 156.054 107.305 155.282 107.305C154.681 107.305 154.206 107.52 154.008 107.61C154.088 107.834 154.097 108.113 154.035 108.454L153.532 111.335C153.506 111.461 153.46 111.497 153.334 111.497H153.057C152.931 111.497 152.904 111.461 152.931 111.335L153.433 108.481C153.577 107.655 153.254 107.305 152.491 107.305C152.096 107.305 151.809 107.368 151.522 107.484C151.378 107.547 151.351 107.628 151.324 107.727L150.695 111.335C150.668 111.461 150.625 111.497 150.507 111.497H150.22C150.103 111.497 150.067 111.461 150.094 111.335L150.759 107.547C150.813 107.269 150.902 107.152 151.19 107.035C151.53 106.892 151.997 106.748 152.662 106.748C153.182 106.748 153.55 106.883 153.765 107.144C153.972 107.053 154.582 106.748 155.453 106.748Z" fill="#C51618"/>
<path d="M163.572 107.269C162.701 107.269 162.101 107.762 161.947 108.588L161.876 108.938C162.36 109.047 162.872 109.091 163.302 109.091C164.101 109.091 164.605 108.822 164.74 108.275C164.901 107.619 164.452 107.269 163.572 107.269ZM163.662 106.748C164.874 106.748 165.547 107.359 165.322 108.345C165.143 109.18 164.408 109.567 163.213 109.567C162.773 109.567 162.235 109.513 161.794 109.424L161.714 109.872C161.579 110.652 161.956 111.101 162.846 111.101C163.582 111.101 164.039 110.824 164.371 110.392C164.47 110.285 164.533 110.258 164.64 110.329L164.811 110.438C164.909 110.5 164.909 110.582 164.819 110.698C164.407 111.245 163.787 111.622 162.756 111.622C161.409 111.622 160.942 110.832 161.14 109.746L161.355 108.579C161.561 107.413 162.396 106.748 163.662 106.748Z" fill="#C51618"/>
<path d="M173.019 111.497H172.758C172.579 111.497 172.552 111.47 172.517 111.353L172.076 109.953C171.959 109.576 171.753 109.405 171.296 109.405H170.263L169.93 111.326C169.904 111.461 169.859 111.497 169.725 111.497H169.464C169.329 111.497 169.302 111.461 169.32 111.326L170.075 107.044C170.101 106.919 170.147 106.883 170.281 106.883H170.541C170.666 106.883 170.703 106.919 170.676 107.044L170.362 108.849H171.313H171.402L173.171 107.008C173.289 106.883 173.333 106.883 173.513 106.883H173.764C173.934 106.883 173.934 106.973 173.808 107.09L171.959 109.001C172.31 109.082 172.49 109.306 172.624 109.692L173.153 111.308C173.198 111.443 173.171 111.497 173.019 111.497Z" fill="#C51618"/>
</g>
<defs>
<clipPath id="clip0_300_21068">
<rect width="210" height="37.3729" fill="white" transform="translate(0.444336 75.7051)"/>
</clipPath>
</defs>
</svg>
